<svg height="256px" width="256px" version="1.1" id="_x32_" xmlns="http://www.w3.org/2000/svg" xmlns:xlink="http://www.w3.org/1999/xlink" viewBox="-51.2 -51.2 614.40 614.40" xml:space="preserve" fill="#afcce4" stroke="#afcce4" stroke-width="5.12" transform="matrix(1, 0, 0, 1, 0, 0)rotate(-45)">
    <g id="SVGRepo_bgCarrier" stroke-width="0"/>
    <g id="SVGRepo_tracerCarrier" stroke-linecap="round" stroke-linejoin="round" stroke="#CCCCCC" stroke-width="10.24">
        <style type="text/css">
            .st0 {
                fill:#4dfcff;
            }
        </style>
        <g>
            <path
                class="st0"
                d="M61.327,157.767h70.29c5.616,0,10.168-4.551,10.168-10.174v-34.392c0-5.616-4.551-10.174-10.168-10.174h-70.29 c-5.623,0-10.182,4.558-10.182,10.174v34.392C51.146,153.216,55.704,157.767,61.327,157.767z"
            />
            <path
                class="st0"
                d="M131.618,354.233h-70.29c-5.623,0-10.182,4.558-10.182,10.174v34.392c0,5.623,4.559,10.174,10.182,10.174 h70.29c5.616,0,10.168-4.551,10.168-10.174v-34.392C141.785,358.791,137.234,354.233,131.618,354.233z"
            />
            <path
                class="st0"
                d="M338.026,160.875h66.704c5.616,0,10.167-4.551,10.167-10.174v-27.203c0-5.623-4.551-10.188-10.167-10.188 h-66.704c-5.616,0-10.166,4.565-10.166,10.188v27.203C327.86,156.325,332.41,160.875,338.026,160.875z"
            />
            <path
                class="st0"
                d="M404.73,351.125h-66.704c-5.616,0-10.166,4.558-10.166,10.174v27.218c0,5.608,4.551,10.174,10.166,10.174 h66.704c5.616,0,10.167-4.566,10.167-10.174v-27.218C414.897,355.683,410.346,351.125,404.73,351.125z"
            />
            <path
                class="st0"
                d="M287.359,226.804c-27.645,0-34.754,13.072-34.754,29.196c0,16.123,7.109,29.196,34.754,29.196 c27.646,0,50.045-13.072,50.045-29.196C337.404,239.877,315.004,226.804,287.359,226.804z"
            />
            <path
                class="st0"
                d="M512,256c0-5.42-1.899-10.486-5.095-14.42c-2.84-3.529-6.776-6.16-11.326-7.515v-83.74h-71.371v67.581 c-8.065-1.71-15.413-3.218-21.066-4.276c-20.174-3.746-63.095-11.377-81.03-14.55c-0.797-3.421-1.681-7.385-2.29-10.812 c-0.928-5.246-2.797-10.579-5.841-15.616l-0.014-0.022c-2.29-3.761-5.225-7.326-8.826-10.493 c-5.398-4.761-12.189-8.55-20.225-11.079l0.015,0.007c-8.044-2.558-17.312-3.884-27.964-3.884h-64.609 c-7.196,0-13.688,0.87-19.522,2.522c-5.102,1.449-9.666,3.522-13.667,5.985c-7.036,4.341-12.181,9.826-16.167,15.066l0.015-0.021 c-3.008,3.934-5.392,7.768-7.493,11.043c-1.587,2.493-3.029,4.725-4.326,6.493c-0.993,1.341-1.92,2.45-2.768,3.327l0.021-0.029 c-1.254,1.268-2.203,1.927-3.196,2.406c-1.058,0.456-1.978,0.732-4.036,0.76c-16.269,0-30.414,0-39.972,0v-30.058H0v182.655h12.805 h68.443v-30.058c9.551,0,23.696,0,39.949,0c2.145,0.029,3.073,0.319,4.124,0.797c0.891,0.421,1.761,1.029,2.898,2.13 c0.964,0.957,2.051,2.254,3.218,3.877l0.029,0.036c2.066,2.841,4.391,6.71,7.189,10.985l0.029,0.044 c2.138,3.217,4.594,6.71,7.616,10.152l-0.007-0.015c4.543,5.217,10.478,10.297,18.218,13.92c7.434,3.478,16.319,5.435,26.638,5.566 l0.218,0.058h0.993h64.609c9.472,0,17.834-1.043,25.232-3.073c5.544-1.514,10.53-3.58,14.928-6.13 c6.631-3.856,11.877-8.826,15.645-14.392c3.768-5.558,6.008-11.594,7.051-17.486c0.609-3.457,1.493-7.414,2.305-10.826 c17.935-3.175,60.841-10.798,81.001-14.544c5.667-1.058,13.022-2.565,21.08-4.282v67.602h71.371v-83.74 c4.528-1.362,8.492-3.986,11.348-7.551l-0.036,0.029C510.094,266.493,512,261.428,512,256z M442.398,168.513h34.993v68.842 c-5.848-1.333-12.971-2.964-20.587-4.674c-4.674-1.051-9.529-2.138-14.406-3.218V168.513z M63.067,202.151h-0.015v107.697h0.015 v19.29H18.189V182.861h44.878V202.151z M477.39,343.494h-34.993v-60.958c12.804-2.826,25.565-5.732,34.993-7.891V343.494z M492.753,259.007c-0.674,0.834-1.609,1.435-2.718,1.682l-0.029,0.008l-0.044,0.007c0,0-0.63,0.145-1.804,0.42l-1.022,0.232 c-2.196,0.515-5.565,1.29-9.747,2.247c-7.963,1.833-18.891,4.319-30.334,6.87c-1.544,0.347-3.108,0.695-4.659,1.043 c-3.602,0.797-7.21,1.594-10.768,2.369c-3.601,0.79-7.167,1.558-10.588,2.29c-8.239,1.761-15.696,3.283-21.239,4.312 c-12.804,2.377-35.08,6.384-54.138,9.782c-9.522,1.696-18.261,3.239-24.594,4.377c-3.174,0.565-5.746,1.007-7.536,1.334 c-1.776,0.318-2.761,0.485-2.761,0.485l-3.377,0.601l-0.891,3.312c-0.008,0.022-0.747,2.79-1.688,6.689 c-0.95,3.891-2.08,8.898-2.899,13.507c-0.564,3.218-1.688,6.384-3.499,9.348c-1.348,2.217-3.08,4.34-5.298,6.297 c-3.326,2.92-7.761,5.515-13.688,7.384c-5.92,1.884-13.326,3.029-22.464,3.029h-64.609c-5.74,0-10.507-0.688-14.536-1.833 c-3.514-1.008-6.486-2.362-9.109-3.964c-4.566-2.826-8.087-6.479-11.247-10.602c-2.348-3.094-4.471-6.442-6.609-9.804 c-1.616-2.522-3.232-5.044-5.021-7.478c-1.348-1.826-2.769-3.594-4.385-5.232c-2.406-2.471-5.239-4.682-8.631-6.232 c-3.398-1.558-7.297-2.42-11.601-2.413H73.828v-86.145h47.392c4.449,0.007,8.456-0.906,11.92-2.565 c3.029-1.435,5.616-3.406,7.841-5.602c1.942-1.92,3.637-4.022,5.21-6.196c2.739-3.79,5.116-7.811,7.667-11.66 c1.913-2.884,3.891-5.666,6.116-8.202c3.348-3.797,7.166-7.037,12.239-9.414c5.08-2.369,11.479-3.913,20.146-3.92h64.609 c8.116,0,14.87,0.913,20.435,2.434c4.166,1.131,7.666,2.616,10.587,4.32c4.384,2.55,7.492,5.579,9.724,8.855 c2.225,3.29,3.566,6.841,4.203,10.449c0.82,4.609,1.95,9.624,2.899,13.508c0.942,3.898,1.681,6.667,1.688,6.696l0.891,3.304 l3.377,0.601c0,0,0.986,0.167,2.761,0.5c12.478,2.203,63.826,11.305,86.269,15.479c6.334,1.174,15.175,3,24.82,5.087 c2.29,0.492,4.644,1,7.007,1.514c3.558,0.783,7.166,1.572,10.768,2.369c9.108,2.03,18.094,4.058,25.768,5.805 c3.363,0.76,6.471,1.478,9.225,2.108c2.45,0.566,4.623,1.058,6.442,1.479c1.819,0.42,3.282,0.768,4.326,1.014l0.188,0.043 c1.051,0.24,1.615,0.363,1.615,0.363l0.044,0.014h0.029c1.109,0.246,2.044,0.848,2.718,1.682c0.674,0.833,1.058,1.876,1.072,3.007 C493.811,257.138,493.427,258.174,492.753,259.007z"/> <path class="st0" d="M506.891,241.558c0.007,0.006,0.007,0.014,0.014,0.022c0.007,0.007,0.007,0.007,0.015,0.015L506.891,241.558z"
            />
        </g>
    </g>
    <g id="SVGRepo_iconCarrier">
        <style type="text/css">
            .st0 {
                fill:#4dfcff;
            }
        </style>
        <g>
            <path
                class="st0"
                d="M61.327,157.767h70.29c5.616,0,10.168-4.551,10.168-10.174v-34.392c0-5.616-4.551-10.174-10.168-10.174h-70.29 c-5.623,0-10.182,4.558-10.182,10.174v34.392C51.146,153.216,55.704,157.767,61.327,157.767z"
            />
            <path
                class="st0"
                d="M131.618,354.233h-70.29c-5.623,0-10.182,4.558-10.182,10.174v34.392c0,5.623,4.559,10.174,10.182,10.174 h70.29c5.616,0,10.168-4.551,10.168-10.174v-34.392C141.785,358.791,137.234,354.233,131.618,354.233z"
            />
            <path
                class="st0"
                d="M338.026,160.875h66.704c5.616,0,10.167-4.551,10.167-10.174v-27.203c0-5.623-4.551-10.188-10.167-10.188 h-66.704c-5.616,0-10.166,4.565-10.166,10.188v27.203C327.86,156.325,332.41,160.875,338.026,160.875z"
            />
            <path
                class="st0"
                d="M404.73,351.125h-66.704c-5.616,0-10.166,4.558-10.166,10.174v27.218c0,5.608,4.551,10.174,10.166,10.174 h66.704c5.616,0,10.167-4.566,10.167-10.174v-27.218C414.897,355.683,410.346,351.125,404.73,351.125z"
            />
            <path
                class="st0"
                d="M287.359,226.804c-27.645,0-34.754,13.072-34.754,29.196c0,16.123,7.109,29.196,34.754,29.196 c27.646,0,50.045-13.072,50.045-29.196C337.404,239.877,315.004,226.804,287.359,226.804z"
            />
            <path
                class="st0"
                d="M512,256c0-5.42-1.899-10.486-5.095-14.42c-2.84-3.529-6.776-6.16-11.326-7.515v-83.74h-71.371v67.581 c-8.065-1.71-15.413-3.218-21.066-4.276c-20.174-3.746-63.095-11.377-81.03-14.55c-0.797-3.421-1.681-7.385-2.29-10.812 c-0.928-5.246-2.797-10.579-5.841-15.616l-0.014-0.022c-2.29-3.761-5.225-7.326-8.826-10.493 c-5.398-4.761-12.189-8.55-20.225-11.079l0.015,0.007c-8.044-2.558-17.312-3.884-27.964-3.884h-64.609 c-7.196,0-13.688,0.87-19.522,2.522c-5.102,1.449-9.666,3.522-13.667,5.985c-7.036,4.341-12.181,9.826-16.167,15.066l0.015-0.021 c-3.008,3.934-5.392,7.768-7.493,11.043c-1.587,2.493-3.029,4.725-4.326,6.493c-0.993,1.341-1.92,2.45-2.768,3.327l0.021-0.029 c-1.254,1.268-2.203,1.927-3.196,2.406c-1.058,0.456-1.978,0.732-4.036,0.76c-16.269,0-30.414,0-39.972,0v-30.058H0v182.655h12.805 h68.443v-30.058c9.551,0,23.696,0,39.949,0c2.145,0.029,3.073,0.319,4.124,0.797c0.891,0.421,1.761,1.029,2.898,2.13 c0.964,0.957,2.051,2.254,3.218,3.877l0.029,0.036c2.066,2.841,4.391,6.71,7.189,10.985l0.029,0.044 c2.138,3.217,4.594,6.71,7.616,10.152l-0.007-0.015c4.543,5.217,10.478,10.297,18.218,13.92c7.434,3.478,16.319,5.435,26.638,5.566 l0.218,0.058h0.993h64.609c9.472,0,17.834-1.043,25.232-3.073c5.544-1.514,10.53-3.58,14.928-6.13 c6.631-3.856,11.877-8.826,15.645-14.392c3.768-5.558,6.008-11.594,7.051-17.486c0.609-3.457,1.493-7.414,2.305-10.826 c17.935-3.175,60.841-10.798,81.001-14.544c5.667-1.058,13.022-2.565,21.08-4.282v67.602h71.371v-83.74 c4.528-1.362,8.492-3.986,11.348-7.551l-0.036,0.029C510.094,266.493,512,261.428,512,256z M442.398,168.513h34.993v68.842 c-5.848-1.333-12.971-2.964-20.587-4.674c-4.674-1.051-9.529-2.138-14.406-3.218V168.513z M63.067,202.151h-0.015v107.697h0.015 v19.29H18.189V182.861h44.878V202.151z M477.39,343.494h-34.993v-60.958c12.804-2.826,25.565-5.732,34.993-7.891V343.494z M492.753,259.007c-0.674,0.834-1.609,1.435-2.718,1.682l-0.029,0.008l-0.044,0.007c0,0-0.63,0.145-1.804,0.42l-1.022,0.232 c-2.196,0.515-5.565,1.29-9.747,2.247c-7.963,1.833-18.891,4.319-30.334,6.87c-1.544,0.347-3.108,0.695-4.659,1.043 c-3.602,0.797-7.21,1.594-10.768,2.369c-3.601,0.79-7.167,1.558-10.588,2.29c-8.239,1.761-15.696,3.283-21.239,4.312 c-12.804,2.377-35.08,6.384-54.138,9.782c-9.522,1.696-18.261,3.239-24.594,4.377c-3.174,0.565-5.746,1.007-7.536,1.334 c-1.776,0.318-2.761,0.485-2.761,0.485l-3.377,0.601l-0.891,3.312c-0.008,0.022-0.747,2.79-1.688,6.689 c-0.95,3.891-2.08,8.898-2.899,13.507c-0.564,3.218-1.688,6.384-3.499,9.348c-1.348,2.217-3.08,4.34-5.298,6.297 c-3.326,2.92-7.761,5.515-13.688,7.384c-5.92,1.884-13.326,3.029-22.464,3.029h-64.609c-5.74,0-10.507-0.688-14.536-1.833 c-3.514-1.008-6.486-2.362-9.109-3.964c-4.566-2.826-8.087-6.479-11.247-10.602c-2.348-3.094-4.471-6.442-6.609-9.804 c-1.616-2.522-3.232-5.044-5.021-7.478c-1.348-1.826-2.769-3.594-4.385-5.232c-2.406-2.471-5.239-4.682-8.631-6.232 c-3.398-1.558-7.297-2.42-11.601-2.413H73.828v-86.145h47.392c4.449,0.007,8.456-0.906,11.92-2.565 c3.029-1.435,5.616-3.406,7.841-5.602c1.942-1.92,3.637-4.022,5.21-6.196c2.739-3.79,5.116-7.811,7.667-11.66 c1.913-2.884,3.891-5.666,6.116-8.202c3.348-3.797,7.166-7.037,12.239-9.414c5.08-2.369,11.479-3.913,20.146-3.92h64.609 c8.116,0,14.87,0.913,20.435,2.434c4.166,1.131,7.666,2.616,10.587,4.32c4.384,2.55,7.492,5.579,9.724,8.855 c2.225,3.29,3.566,6.841,4.203,10.449c0.82,4.609,1.95,9.624,2.899,13.508c0.942,3.898,1.681,6.667,1.688,6.696l0.891,3.304 l3.377,0.601c0,0,0.986,0.167,2.761,0.5c12.478,2.203,63.826,11.305,86.269,15.479c6.334,1.174,15.175,3,24.82,5.087 c2.29,0.492,4.644,1,7.007,1.514c3.558,0.783,7.166,1.572,10.768,2.369c9.108,2.03,18.094,4.058,25.768,5.805 c3.363,0.76,6.471,1.478,9.225,2.108c2.45,0.566,4.623,1.058,6.442,1.479c1.819,0.42,3.282,0.768,4.326,1.014l0.188,0.043 c1.051,0.24,1.615,0.363,1.615,0.363l0.044,0.014h0.029c1.109,0.246,2.044,0.848,2.718,1.682c0.674,0.833,1.058,1.876,1.072,3.007 C493.811,257.138,493.427,258.174,492.753,259.007z"
            />
            <path
                class="st0"
                d="M506.891,241.558c0.007,0.006,0.007,0.014,0.014,0.022c0.007,0.007,0.007,0.007,0.015,0.015L506.891,241.558z"
            />
        </g>
    </g>
</svg>
