<?xml version="1.0" encoding="UTF-8"?>
<svg width="700pt" height="700pt" version="1.1" viewBox="0 0 700 700" xmlns="http://www.w3.org/2000/svg" xmlns:xlink="http://www.w3.org/1999/xlink">
 <defs>
  <symbol id="u" overflow="visible">
   <path d="m14.656-0.875c-0.76172 0.39844-1.5547 0.69531-2.375 0.89062-0.8125 0.19531-1.6641 0.29688-2.5469 0.29688-2.6562 0-4.7617-0.73828-6.3125-2.2188-1.5547-1.4883-2.3281-3.5039-2.3281-6.0469 0-2.5508 0.77344-4.5664 2.3281-6.0469 1.5508-1.4883 3.6562-2.2344 6.3125-2.2344 0.88281 0 1.7344 0.10156 2.5469 0.29688 0.82031 0.19922 1.6133 0.49609 2.375 0.89062v3.2969c-0.76172-0.51953-1.5117-0.89844-2.25-1.1406-0.74219-0.23828-1.5234-0.35938-2.3438-0.35938-1.4688 0-2.625 0.46875-3.4688 1.4062-0.83594 0.9375-1.25 2.2344-1.25 3.8906 0 1.6484 0.41406 2.9375 1.25 3.875 0.84375 0.9375 2 1.4062 3.4688 1.4062 0.82031 0 1.6016-0.11719 2.3438-0.35938 0.73828-0.23828 1.4883-0.61719 2.25-1.1406z"/>
  </symbol>
  <symbol id="d" overflow="visible">
   <path d="m10.719-8.7031c-0.33594-0.15625-0.66797-0.26953-1-0.34375-0.32422-0.082031-0.65625-0.125-1-0.125-0.98047 0-1.7344 0.32031-2.2656 0.95312-0.53125 0.625-0.79688 1.5273-0.79688 2.7031v5.5156h-3.8125v-11.969h3.8125v1.9688c0.48828-0.78125 1.0508-1.3477 1.6875-1.7031 0.64453-0.36328 1.4102-0.54688 2.2969-0.54688 0.13281 0 0.27344 0.007812 0.42188 0.015625 0.14453 0.011719 0.36328 0.03125 0.65625 0.0625z"/>
  </symbol>
  <symbol id="a" overflow="visible">
   <path d="m13.781-6.0156v1.0938h-8.9375c0.09375 0.89844 0.41406 1.5703 0.96875 2.0156 0.55078 0.44922 1.3281 0.67188 2.3281 0.67188 0.80078 0 1.625-0.11719 2.4688-0.35938 0.84375-0.23828 1.7109-0.59766 2.6094-1.0781v2.9531c-0.90625 0.33594-1.8125 0.58984-2.7188 0.76562s-1.8125 0.26562-2.7188 0.26562c-2.1562 0-3.8398-0.54688-5.0469-1.6406-1.1992-1.1016-1.7969-2.6484-1.7969-4.6406 0-1.9453 0.58594-3.4766 1.7656-4.5938 1.1758-1.125 2.8008-1.6875 4.875-1.6875 1.875 0 3.375 0.57031 4.5 1.7031 1.1328 1.125 1.7031 2.6367 1.7031 4.5312zm-3.9375-1.2656c0-0.72656-0.21484-1.3125-0.64062-1.75-0.41797-0.44531-0.96875-0.67188-1.6562-0.67188-0.74219 0-1.3438 0.21094-1.8125 0.625-0.46094 0.41797-0.74609 1.0156-0.85938 1.7969z"/>
  </symbol>
  <symbol id="g" overflow="visible">
   <path d="m7.2031-5.3906c-0.80469 0-1.4062 0.13672-1.8125 0.40625-0.39844 0.27344-0.59375 0.67188-0.59375 1.2031 0 0.48047 0.16016 0.85938 0.48438 1.1406 0.32031 0.27344 0.77344 0.40625 1.3594 0.40625 0.71875 0 1.3203-0.25391 1.8125-0.76562 0.48828-0.51953 0.73438-1.1719 0.73438-1.9531v-0.4375zm5.8438-1.4375v6.8281h-3.8594v-1.7656c-0.51172 0.71875-1.0898 1.2461-1.7344 1.5781-0.63672 0.33203-1.418 0.5-2.3438 0.5-1.2422 0-2.2461-0.35938-3.0156-1.0781-0.77344-0.72656-1.1562-1.6719-1.1562-2.8281 0-1.3945 0.47656-2.4219 1.4375-3.0781 0.96875-0.65625 2.4883-0.98438 4.5625-0.98438h2.25v-0.29688c0-0.60156-0.24219-1.0469-0.71875-1.3281-0.48047-0.28125-1.2266-0.42188-2.2344-0.42188-0.8125 0-1.5742 0.085937-2.2812 0.25-0.71094 0.15625-1.3672 0.40234-1.9688 0.73438v-2.9219c0.82031-0.19531 1.6445-0.34766 2.4688-0.45312 0.82031-0.10156 1.6484-0.15625 2.4844-0.15625 2.1562 0 3.7109 0.42969 4.6719 1.2812 0.95703 0.84375 1.4375 2.2266 1.4375 4.1406z"/>
  </symbol>
  <symbol id="b" overflow="visible">
   <path d="m6.0156-15.359v3.3906h3.9375v2.7344h-3.9375v5.0781c0 0.55469 0.10938 0.92969 0.32812 1.125 0.21875 0.19922 0.65625 0.29688 1.3125 0.29688h1.9688v2.7344h-3.2812c-1.5117 0-2.5859-0.3125-3.2188-0.9375-0.625-0.63281-0.9375-1.707-0.9375-3.2188v-5.0781h-1.9062v-2.7344h1.9062v-3.3906z"/>
  </symbol>
  <symbol id="i" overflow="visible">
   <path d="m9.9688-10.219v-6.4062h3.8594v16.625h-3.8594v-1.7344c-0.52344 0.71094-1.1016 1.2305-1.7344 1.5625-0.63672 0.32031-1.3711 0.48438-2.2031 0.48438-1.4688 0-2.6797-0.58203-3.625-1.75-0.94922-1.1758-1.4219-2.6875-1.4219-4.5312s0.47266-3.3477 1.4219-4.5156c0.94531-1.1758 2.1562-1.7656 3.625-1.7656 0.83203 0 1.5664 0.16797 2.2031 0.5 0.63281 0.32422 1.2109 0.83594 1.7344 1.5312zm-2.5156 7.75c0.82031 0 1.4453-0.29688 1.875-0.89062 0.42578-0.60156 0.64062-1.4727 0.64062-2.6094 0-1.1445-0.21484-2.0156-0.64062-2.6094-0.42969-0.59375-1.0547-0.89062-1.875-0.89062-0.8125 0-1.4336 0.29688-1.8594 0.89062-0.42969 0.59375-0.64062 1.4648-0.64062 2.6094 0 1.1367 0.21094 2.0078 0.64062 2.6094 0.42578 0.59375 1.0469 0.89062 1.8594 0.89062z"/>
  </symbol>
  <symbol id="c" overflow="visible">
   <path d="m8.2031-2.4688c0.82031 0 1.4453-0.29688 1.875-0.89062 0.42578-0.60156 0.64062-1.4727 0.64062-2.6094 0-1.1445-0.21484-2.0156-0.64062-2.6094-0.42969-0.59375-1.0547-0.89062-1.875-0.89062-0.82422 0-1.4531 0.30469-1.8906 0.90625-0.4375 0.59375-0.65625 1.4609-0.65625 2.5938 0 1.1367 0.21875 2.0078 0.65625 2.6094 0.4375 0.59375 1.0664 0.89062 1.8906 0.89062zm-2.5469-7.75c0.53125-0.69531 1.1133-1.207 1.75-1.5312 0.64453-0.33203 1.3828-0.5 2.2188-0.5 1.4688 0 2.6758 0.58984 3.625 1.7656 0.94531 1.168 1.4219 2.6719 1.4219 4.5156s-0.47656 3.3555-1.4219 4.5312c-0.94922 1.168-2.1562 1.75-3.625 1.75-0.83594 0-1.5742-0.16797-2.2188-0.5-0.63672-0.33203-1.2188-0.84766-1.75-1.5469v1.7344h-3.8125v-16.625h3.8125z"/>
  </symbol>
  <symbol id="f" overflow="visible">
   <path d="m0.26562-11.969h3.8281l3.2188 8.125 2.7344-8.125h3.8125l-5.0312 13.094c-0.5 1.332-1.0898 2.2656-1.7656 2.7969-0.66797 0.53125-1.5547 0.79688-2.6562 0.79688h-2.2188v-2.5h1.2031c0.64453 0 1.1133-0.10547 1.4062-0.3125 0.30078-0.21094 0.53125-0.57812 0.6875-1.1094l0.10938-0.34375z"/>
  </symbol>
  <symbol id="h" overflow="visible">
   <path d="m2.0156-15.953h4.1094v6.0781h6.0625v-6.0781h4.1094v15.953h-4.1094v-6.7656h-6.0625v6.7656h-4.1094z"/>
  </symbol>
  <symbol id="t" overflow="visible">
   <path d="m7.8438-8.875c0.86328 0 1.4844-0.16016 1.8594-0.48438 0.375-0.32031 0.5625-0.84766 0.5625-1.5781 0-0.72656-0.1875-1.25-0.5625-1.5625s-0.99609-0.46875-1.8594-0.46875h-1.7188v4.0938zm-1.7188 2.8438v6.0312h-4.1094v-15.953h6.2656c2.1016 0 3.6445 0.35547 4.625 1.0625 0.97656 0.71094 1.4688 1.8242 1.4688 3.3438 0 1.0547-0.25781 1.918-0.76562 2.5938-0.51172 0.67969-1.2773 1.1797-2.2969 1.5 0.5625 0.125 1.0625 0.41797 1.5 0.875 0.44531 0.44922 0.89844 1.1328 1.3594 2.0469l2.2344 4.5312h-4.375l-1.9531-3.9688c-0.38672-0.78906-0.78125-1.332-1.1875-1.625-0.40625-0.28906-0.94531-0.4375-1.6094-0.4375z"/>
  </symbol>
  <symbol id="s" overflow="visible">
   <path d="m1.8438-11.969h3.8125v11.969h-3.8125zm0-4.6562h3.8125v3.125h-3.8125z"/>
  </symbol>
  <symbol id="r" overflow="visible">
   <path d="m9.7031-16.625v2.5156h-2.1094c-0.54297 0-0.92188 0.10156-1.1406 0.29688-0.21094 0.19922-0.3125 0.53906-0.3125 1.0156v0.82812h3.2656v2.7344h-3.2656v9.2344h-3.8281v-9.2344h-1.8906v-2.7344h1.8906v-0.82812c0-1.3008 0.36328-2.2656 1.0938-2.8906 0.72656-0.625 1.8516-0.9375 3.375-0.9375z"/>
  </symbol>
  <symbol id="e" overflow="visible">
   <path d="m7.5312-9.5156c-0.84375 0-1.4922 0.30859-1.9375 0.92188-0.44922 0.60547-0.67188 1.4805-0.67188 2.625 0 1.1484 0.22266 2.0273 0.67188 2.6406 0.44531 0.60547 1.0938 0.90625 1.9375 0.90625 0.83203 0 1.4688-0.30078 1.9062-0.90625 0.44531-0.61328 0.67188-1.4922 0.67188-2.6406 0-1.1445-0.22656-2.0195-0.67188-2.625-0.4375-0.61328-1.0742-0.92188-1.9062-0.92188zm0-2.7344c2.0508 0 3.6562 0.55859 4.8125 1.6719 1.1641 1.1055 1.75 2.6406 1.75 4.6094s-0.58594 3.5117-1.75 4.625c-1.1562 1.1055-2.7617 1.6562-4.8125 1.6562-2.0625 0-3.6797-0.55078-4.8438-1.6562-1.168-1.1133-1.75-2.6562-1.75-4.625s0.58203-3.5039 1.75-4.6094c1.1641-1.1133 2.7812-1.6719 4.8438-1.6719z"/>
  </symbol>
  <symbol id="q" overflow="visible">
   <path d="m12.922-9.9688c0.48828-0.75 1.0625-1.3164 1.7188-1.7031 0.66406-0.38281 1.3984-0.57812 2.2031-0.57812 1.375 0 2.4219 0.42969 3.1406 1.2812 0.71875 0.84375 1.0781 2.0742 1.0781 3.6875v7.2812h-3.8438v-6.2344c0.007812-0.09375 0.015625-0.1875 0.015625-0.28125v-0.4375c0-0.84375-0.125-1.457-0.375-1.8438-0.25-0.38281-0.65234-0.57812-1.2031-0.57812-0.73047 0-1.293 0.30469-1.6875 0.90625-0.38672 0.59375-0.58984 1.4609-0.60938 2.5938v5.875h-3.8438v-6.2344c0-1.3203-0.11719-2.1758-0.34375-2.5625-0.23047-0.38281-0.63672-0.57812-1.2188-0.57812-0.73047 0-1.2969 0.30469-1.7031 0.90625-0.39844 0.60547-0.59375 1.4648-0.59375 2.5781v5.8906h-3.8438v-11.969h3.8438v1.75c0.46875-0.66406 1.0039-1.1719 1.6094-1.5156 0.61328-0.34375 1.2891-0.51562 2.0312-0.51562 0.82031 0 1.5508 0.19922 2.1875 0.59375 0.63281 0.39844 1.1133 0.96094 1.4375 1.6875z"/>
  </symbol>
  <symbol id="p" overflow="visible">
   <path d="m13.859-7.2812v7.2812h-3.8438v-5.5469c0-1.0508-0.027344-1.7695-0.078125-2.1562-0.042969-0.39453-0.12109-0.6875-0.23438-0.875-0.14844-0.25-0.35156-0.44141-0.60938-0.57812-0.25-0.14453-0.54297-0.21875-0.875-0.21875-0.79297 0-1.418 0.3125-1.875 0.9375-0.46094 0.61719-0.6875 1.4648-0.6875 2.5469v5.8906h-3.8125v-16.625h3.8125v6.4062c0.58203-0.69531 1.1953-1.207 1.8438-1.5312 0.64453-0.33203 1.3594-0.5 2.1406-0.5 1.3828 0 2.4297 0.42969 3.1406 1.2812 0.71875 0.84375 1.0781 2.0742 1.0781 3.6875z"/>
  </symbol>
  <symbol id="o" overflow="visible">
   <path d="m2.0156-15.953h4.5781l5.8125 10.938v-10.938h3.8906v15.953h-4.5938l-5.7969-10.938v10.938h-3.8906z"/>
  </symbol>
  <symbol id="n" overflow="visible">
   <path d="m1.7031-4.6562v-7.3125h3.8438v1.2031c0 0.64844-0.007813 1.4609-0.015625 2.4375v1.9688c0 0.96094 0.023438 1.6523 0.078125 2.0781 0.050781 0.41797 0.13281 0.72656 0.25 0.92188 0.15625 0.25 0.35938 0.44531 0.60938 0.57812 0.25781 0.13672 0.55078 0.20312 0.875 0.20312 0.80078 0 1.4258-0.30469 1.875-0.92188 0.45703-0.61328 0.6875-1.4688 0.6875-2.5625v-5.9062h3.8281v11.969h-3.8281v-1.7344c-0.57422 0.69922-1.1836 1.2148-1.8281 1.5469-0.64844 0.33203-1.3555 0.5-2.125 0.5-1.3867 0-2.4453-0.42188-3.1719-1.2656-0.71875-0.85156-1.0781-2.0859-1.0781-3.7031z"/>
  </symbol>
  <symbol id="m" overflow="visible">
   <path d="m13.859-7.2812v7.2812h-3.8438v-5.5781c0-1.0312-0.027344-1.7383-0.078125-2.125-0.042969-0.39453-0.12109-0.6875-0.23438-0.875-0.14844-0.25-0.35156-0.44141-0.60938-0.57812-0.25-0.14453-0.54297-0.21875-0.875-0.21875-0.79297 0-1.418 0.3125-1.875 0.9375-0.46094 0.61719-0.6875 1.4648-0.6875 2.5469v5.8906h-3.8125v-11.969h3.8125v1.75c0.58203-0.69531 1.1953-1.207 1.8438-1.5312 0.64453-0.33203 1.3594-0.5 2.1406-0.5 1.3828 0 2.4297 0.42969 3.1406 1.2812 0.71875 0.84375 1.0781 2.0742 1.0781 3.6875z"/>
  </symbol>
  <symbol id="l" overflow="visible">
   <path d="m2.0156-15.953h6.8125c2.0312 0 3.5859 0.45312 4.6719 1.3594 1.0938 0.89844 1.6406 2.1797 1.6406 3.8438 0 1.6797-0.54688 2.9688-1.6406 3.875-1.0859 0.89844-2.6406 1.3438-4.6719 1.3438h-2.7031v5.5312h-4.1094zm4.1094 2.9844v4.4531h2.2656c0.80078 0 1.4141-0.19141 1.8438-0.57812 0.4375-0.38281 0.65625-0.9375 0.65625-1.6562 0-0.70703-0.21875-1.2539-0.65625-1.6406-0.42969-0.38281-1.043-0.57812-1.8438-0.57812z"/>
  </symbol>
  <symbol id="k" overflow="visible">
   <path d="m1.8438-11.969h3.8125v11.75c0 1.6016-0.38672 2.8281-1.1562 3.6719-0.76172 0.84375-1.8711 1.2656-3.3281 1.2656h-1.8906v-2.5h0.65625c0.72656 0 1.2266-0.16797 1.5-0.5 0.26953-0.32422 0.40625-0.96875 0.40625-1.9375zm0-4.6562h3.8125v3.125h-3.8125z"/>
  </symbol>
  <symbol id="j" overflow="visible">
   <path d="m11.5-11.594v3.125c-0.52344-0.35156-1.043-0.61328-1.5625-0.78125-0.52344-0.17578-1.0625-0.26562-1.625-0.26562-1.0742 0-1.9062 0.3125-2.5 0.9375s-0.89062 1.4961-0.89062 2.6094c0 1.1172 0.29688 1.9844 0.89062 2.6094s1.4258 0.9375 2.5 0.9375c0.59375 0 1.1562-0.085937 1.6875-0.26562 0.53906-0.17578 1.0391-0.44141 1.5-0.79688v3.125c-0.59375 0.23047-1.1992 0.39453-1.8125 0.5-0.61719 0.11328-1.2344 0.17188-1.8594 0.17188-2.1562 0-3.8438-0.55078-5.0625-1.6562-1.2188-1.1133-1.8281-2.6562-1.8281-4.625s0.60938-3.5039 1.8281-4.6094c1.2188-1.1133 2.9062-1.6719 5.0625-1.6719 0.625 0 1.2383 0.058594 1.8438 0.17188 0.61328 0.10547 1.2227 0.26562 1.8281 0.48438z"/>
  </symbol>
 </defs>
 <g>
  <path d="m481.54 56.496c-1.168 0.4375-0.39062 0.21094 0.35547-0.95703 0.39062-0.53516 0.74219-1.0977 1.1367-1.6328 0.91797-1.3125 1.6641-2.7305 2.5859-4.0781 1.5625-2.25 2.8047-4.7109 3.6875-7.3047-17.953-11.754-39.191-17.469-60.621-16.305-20.172 0.92188-39.562 4.2539-55.59 15.492 5.3555 5.1758 8.3125 12.938 12.977 18.609 0.10547 0.14063 0.17578 0.28516 0.28516 0.4375v0.003907c16.02-6.8672 33.203-10.617 50.625-11.062 14.777 0.26953 29.426 2.8164 43.426 7.5508 0.33203-0.3125 0.71484-0.56641 1.1328-0.75391zm0.57031 325.68c6.6875 2.4648 13.598 4.2891 20.633 5.4453 9.4844 1.8203 18.711 4.7969 27.473 8.8633 1.6289-5.918 0.14062-14.535 0.14062-19.848 0-5.3164-14.852-7.4805-18.543-8.5078-9.7461-2.7656-19.215-6.0273-29.066-7.9414 0.070312 6.5664 0.25 21.988-0.625 21.988zm-35.438-122.8c0.60547 0.070313 1.1328 1.4531 1.668 2.125 1.668 1.9844 2.9062 4.4688 4.4688 6.5938 1.3125 1.75 3.4023 2.875 4.7852 4.5781l-0.003906-0.003906c0.38672 0.44922 0.74219 0.92188 1.0625 1.418 0.42578-0.85938 0.71094-1.7812 0.85156-2.7305-0.10156-0.53906-0.11328-1.0898-0.035156-1.6328-0.375-1.5938-1.1836-3.0547-2.3438-4.2148-3.4375-3.9375 2.3047-9.75 5.7812-5.7812 1.3867 1.5859 2.5781 3.3359 3.543 5.2109 1.6133-0.52734 3.1328-1.3086 4.5039-2.3047 0.875-0.67188 9.2188-5.9531 5-6.0234-4.75-0.070312-9.2891 1.1328-14.039 1.1328-3.5781 0.089844-7.1445 0.44531-10.672 1.0625-1.5117 0.30859-3.043 0.5-4.5859 0.56641zm-133.2 138.5c-0.16016-0.046875-0.32812-0.058594-0.49219-0.035156-0.4375 0-0.85156-0.21484-1.2773-0.21484h-2.4844c-1.8516 2.1953-3.4336 4.5977-4.7188 7.1641-2.2812 5.5234-5.9297 10.379-10.602 14.109 3.3398 0.58984 6.7188 0.91016 10.105 0.95703 2.2539 0 4.0781 1.8281 4.0781 4.0781s-1.8242 4.0781-4.0781 4.0781c-3.1758 0.13672-6.3555-0.03125-9.5-0.5-1.4883-0.28516-3.1875-1.168-4.75-0.53125l-0.003906 0.003906c-0.85156 0.375-1.7422 0.66797-2.6523 0.875-0.15625-0.007812-0.3125 0.003907-0.46484 0.035157-4.668 4.1875-7.8828 9.7461-9.1875 15.879 2.4258 1.5664 5.0469 2.8047 7.7969 3.6875 3.6172 0.96875 7.3516 1.4102 11.094 1.3125 2.1797 0.10156 3.8945 1.8984 3.8945 4.0781 0 2.1836-1.7148 3.9766-3.8945 4.0781-5.3555 0.24609-10.703-0.625-15.703-2.5547-1.418-0.64062-3.1211-1.3828-4.8125-2.2305-0.035156 1.9844-0.21484 3.9688-0.070312 5.7383 0.35547 4.5117 1.1523 8.9766 2.375 13.332 6.7031 3.6523 18.047 2.3398 24.391 0.14453 6.0977-2.1289 18.438-3.2656 22.547-8.3711 0.25-0.33594 0.5625-0.625 0.91797-0.84766-0.77734-2.875-1.4531-5.7812-2.0156-8.6836-4.3281 3.2578-9.8555 5.8086-11.879 10.844-1.9531 4.7852-9.8555 2.625-7.875-2.2656 1.5469-4.2578 4.3711-7.9375 8.0859-10.531 2.125-1.4883 4.1133-2.9805 6.125-4.6055 1.0898-0.99609 2.1133-2.0625 3.0625-3.1953-0.007813-0.87109 0.14844-1.7344 0.46484-2.5508-7.4219 2.6758-15.414 3.3867-23.188 2.0586-5.1758-0.92188-2.9766-8.793 2.1641-7.875 6.8398 1.0781 13.848 0.19531 20.203-2.5508 0.29688-0.125 0.60938-0.21875 0.92188-0.28516-1.6328-11.309-3.8984-23.148-4.8906-34.707-1.0703 0.54688-2.3242 0.59766-3.4375 0.14062 0 0.011719-0.10547-0.023438-0.25-0.058594zm271.41 125.28v0.003906c0.86719 0.33984 1.4531 1.1602 1.4922 2.0898 0 14.18-6.9141 11.414-18.543 12.477-6.2734 0.60547-12.871 0.875-19.5 1.0273h0.003906c-1.1641 0.53906-2.5039 0.56641-3.6875 0.074219-8.4414 0.078125-16.883-0.33594-25.273-1.2422-1.0273-0.089844-1.9805-0.57422-2.6602-1.3477-24.938 0.46094-49 2.125-73.84 4.8906l-0.003906 0.003907c-23.117 2.1445-46.406 1.6484-69.414-1.4883-4.6055-0.57031-19.285-1.1328-27.828-4.9258-12.055 6.3438-25.734 4.375-39.031 4.375-16.695 0-28.926-1.3477-43.922-8.8242h0.003906c-1.2539-0.71875-2.0273-2.0547-2.0234-3.5 0-11.875 0.95312-20.914-3.6875-32.609v-0.003906c-4.0703-8.6211-6.3359-17.98-6.6641-27.508 0-13.152-8.3125-22.723-11.949-34.777h0.003907c-2.418-8.3438-3.8906-16.93-4.3984-25.598-7.2656-1.5664-14.297-4.0664-20.918-7.4375-1.0781-0.40234-1.8594-1.3477-2.0547-2.4805-11.695 4.2539-23.504 6.8789-35.375-1.3125-5.5664 1.2695-11.367 1.082-16.84-0.53516-8.6953-3.0898-17.035-7.0938-24.887-11.945-11.238-7.3398-18.402-22.371-20.207-35.207v0.003906c-0.16016-1.0781 0.10938-2.1797 0.74219-3.0625 0-0.17578-0.070313-0.35547-0.070313-0.5625v-0.003906c-0.39844-12.137 1.0742-24.262 4.375-35.949 6.4023-25.598 14.488-54.082 26.965-77.406 2.5938-5.543 5.6523-10.855 9.1445-15.883-0.80078-0.98047-0.95312-2.3398-0.39062-3.4727 1.5156-4.1016 3.543-7.9961 6.0273-11.594 0.54688-0.78125 1.3086-1.3867 2.1875-1.75 0.57812-3.1797 2.4062-5.9922 5.082-7.8047 4.5-13.332 15.066-27.758 22.266-39.172 4.9961-7.9414 10.102-13.402 10.102-23.078 0.027343-1.082 0.43359-2.1211 1.1445-2.9375-0.70703-9.2266 0.16016-18.504 2.5547-27.441 3.2773-8.6758 7.3203-17.039 12.09-24.992v-0.070312c2.375-11.77 12.617-21.059 18.434-31.09 3.7578-6.4883 9.6758-20.242 18.012-21.234 8.8242-1.0273 9.8867 9.1133 8.75 15.137-2.0195 10.742-8.0117 19.75-12.406 29.461h-0.003906c4.5234-0.54297 9.1055-0.03125 13.398 1.4883 5.7617 2.1914 10.926 5.7148 15.07 10.281 3.8281 4.2188 1.4531 9.2188 0.70703 14.145 1.3906 3.3867 2.1328 7.0078 2.1875 10.668-0.046875 4.1875-0.92578 8.3164-2.5859 12.16-1.9023 2.8711-4.4375 5.2734-7.4102 7.0195-2.6836 2.2383-5.668 4.0898-8.8594 5.5117-0.59375 0.16016-1.1992 0.29297-1.8086 0.38672-1.6484 3.7109-3.6172 7.2695-5.8828 10.637-2.4453 3.8281-4.6797 7.7266-7 11.555 1.0977 1.5742 1.7656 3.4062 1.9453 5.3203-0.19141 2.0273-1.3008 3.8555-3.0117 4.9609-8.1016 5.9102-2.3945 13.785-4.3672 21.484-2.6602 10.352-3.6875 21.195-6.9141 31.34 2.8359 4.7852-1.8477 10.707-3.6172 15.062-0.11719 0.30469-0.26172 0.59766-0.4375 0.875-0.77734 4.7852-5.3164 10.172-6.3438 14.215-0.18359 0.85547-0.66016 1.6172-1.3477 2.1602-0.19922 0.78906-0.60156 1.5117-1.1719 2.0977-0.4375 7.6602-2.75 15.094-6.7344 21.656-1.5859 2.7969-2.2695 6.0156-1.9492 9.2148 0.035156 0.14453 0.14062 0.25 0.14062 0.4375v2.2344c0.70703 1.4883 1.3828 2.8359 2.3047 2.9805 0.066406 0.039063 0.13672 0.066406 0.21484 0.070313 0.42969-0.16406 0.88672-0.25781 1.3477-0.28125 3.2695-1.2773 6.6875-2.1367 10.172-2.5508 0.14453-0.32031 0.33594-0.61328 0.56641-0.875 2.2617-2.457 5.2383-4.1406 8.5117-4.8125 0.14062-0.41016 0.33203-0.80469 0.5625-1.168 1.9531-2.6953 1.4531-6.3477 3.9023-8.793v-0.003906c3.875-2.8398 8.1836-5.0312 12.762-6.4883 9.5312-3.9688 23.254-7.9766 33.82-5.8125 3.8906 0.81641 7.6836 2.0547 11.309 3.6875 0.19141-0.63672 0.50391-1.2305 0.91797-1.75 1.2383-1.5391 2.7695-2.8164 4.5039-3.7578-0.72266-3.0469 0.011719-6.2539 1.9844-8.6836 2.8711-2.875 8.6836-2.3398 12.336-2.3398h0.003906c9.2969-0.039062 18.488-1.9727 27.012-5.6875 0.33203-0.57031 0.79297-1.0547 1.3477-1.418 1.2617-0.78125 2.6758-1.2852 4.1445-1.4883-4.6016-3.6836-7.3789-9.1797-7.6211-15.066-0.10937-0.92578 0.17578-1.8477 0.78516-2.5508-2.4844-1.418-8.0156-3.7227-8.9336-7-4.8594-17.691-4.8594-40.098-4.8594-58.25 0-3.5-1.0625-8.5039-0.95312-12.973-0.17969 0-0.39062 0.035156-0.57031 0.035156-4.2188-0.10547-5.7461-2.1875-8.9336-4.4688-5.8125-4.0781-5.0703-15.102-1.0977-20.277h-0.003906c2.3945-3.1211 5.9844-5.1055 9.9023-5.4727 5.25-24.316 15.348-47.074 33.891-64.234 19.82-18.332 51.512-24.461 77.918-21.875 27.562 2.6953 52.062 11.812 70.512 33.109 12.906 14.926 31.062 44.773 28.254 65.727-0.10547 0.85156-0.53516 1.6289-1.2031 2.1641 3.9688 9.75 5.3516 20-1.3477 26.801 0 0.035157 0.035156 0.035157 0.035156 0.074219 0 14.18-3.2656 31.375-3.543 47.574-0.25 13.609-3.2656 24.387-11.812 32.895 0.375 0.51562 0.61719 1.1172 0.70703 1.75 1.75 12.477-5.6875 19.957-17.297 23.648-4.375 1.3828-8.0117 3.9375-12.25 4.9258 5.1367 0.14453 10.387 0.28516 13.438 3.332 4.4688 4.4688 3.8633 13.648 5.1758 19.215 2.5508 11.023 6.4492 21.66 8.8242 32.719l-0.003906 0.003906c0.25 0.042969 0.5 0.10156 0.74219 0.17188 21.734 7.9062 36.656 16.91 43 40.062h0.003907c6.5273 25.777 11.465 51.93 14.781 78.312 0.11719 0.79688 0.007812 1.6055-0.31641 2.3438h0.035157c5.5195 30.254 10.582 59.734 7.2109 90.273zm-12.512 5.3906c3.9375-0.81641 5.25 1.2031 5.6875 0.39062-1.2266-0.65625-1.875-2.043-1.5898-3.4023 1.1758-9.8086 1.5781-19.695 1.2031-29.566-3.3789 6.2852-7.2305 12.305-11.52 18.008-5.0859 4.9844-9.7891 10.34-14.074 16.023 1.418-0.035156 2.8359-0.035156 4.2539-0.035156h-0.003906c5.3828 0.11328 10.762-0.36328 16.043-1.418zm-0.39063-39.035 0.003907 0.003906c1.0508-1.8438 3.3945-2.4922 5.25-1.4531-0.39062-6.0625-0.99219-12.09-1.7734-18.117-0.57812 1.4609-1.9141 2.4844-3.4727 2.6602-7.7539 0.4375-15.43 1.7812-22.871 4.0078-0.67578 0.26562-1.4141 0.32422-2.125 0.17578-0.24609 0.32031-0.4375 0.53516-0.4375 0.53516-3.2578 0-3.4727-6.7734-0.77734-7.9062 0.34766-0.28906 0.74219-0.51562 1.168-0.67578 4.3242-1.2422 8.75-2.0977 13.227-2.5508 3.9375-0.81641 7.832-1.2422 11.812-1.75 1.0234-0.17578 2.0742 0.13672 2.832 0.84766-1.418-10.102-3.1875-20.172-4.9961-30.238-0.16797-0.84766-0.070312-1.7266 0.28125-2.5156-3.1562-21.801-7.6211-43.891-12.406-65.441-1.8359-9.1211-4.6641-18.012-8.4375-26.516-4.5352-9.7852-17.5-15.457-27.898-19.32 0.70703 2.8008 1.5938 5.6367 2.3008 8.4688 0.90625 0.96875 1.2383 2.3438 0.875 3.6172 0.035156 0.28516 0.10547 0.5625 0.17578 0.875 2.4492 7.6602 4.0781 15.527-0.31641 22.902-1.9141 2.7266-5.2266 4.1055-8.5078 3.5469 6.2344 1.5352 12.348 3.5234 18.293 5.9531 6.9492 2.9805 4.375 12.25 4.375 18.578 0 5.9922 0.91797 13.297-2.625 18.609-0.94531 1.5859-2.8242 2.3555-4.6094 1.8828-5.1758-2.0898-10.602-4.043-15.75-6.3438-9.4297-4.1875-20.027-3.8672-29.75-7.2695-4.5078-1.5586-8.793-1.9453-10.531-6.6641v-0.003907c-0.64453-4.1758-0.74219-8.418-0.28125-12.621-0.21094-5.1016-0.39062-10.242-0.46094-15.348 0.03125-0.26172 0.078125-0.52344 0.14062-0.77734-0.21875-1.4102 0.23438-2.8398 1.2227-3.8672 0.98438-1.0312 2.3945-1.543 3.8125-1.3828 7.0312 1.1211 13.965 2.793 20.738 5-0.57031-0.25-1.0977-0.46484-1.5586-0.64062v0.003906c-6.7266-2.4531-12.891-6.2383-18.117-11.133-0.77734-0.75-1.457-1.5977-2.0195-2.5195-2.5703 2.5938-5.4805 4.8242-8.6523 6.6328-1.8984 1.1953-3.6797 2.5742-5.3164 4.1133-0.28125 0.17578-0.70703 0.4375-1.2031 0.66797-0.31641 0.86328-0.58984 1.7383-0.81641 2.625-0.17578 0.69531-0.52734 1.3281-1.0273 1.8438 1.3086 2.9805 2.3359 6.0781 3.0625 9.2539 1.0625 4.75 2.3711 9.3984 3.6133 14 0.51953 0.53125 0.85547 1.2148 0.95703 1.9492 0.95703 5.1758 2.1602 10.242 3.4375 15.277h0.003906c6.4141 0.99609 12.68 2.7969 18.645 5.3555 15.527 7.0508 33.074 9.1445 49.172 15.027 0.90625-2.6836 1.5469-5.4492 1.9102-8.2578 0.88281-10.746 2.6875-21.398 5.3906-31.836 1.5625-5 9.4297-2.8359 7.875 2.1875-4.1133 13.227-2.2344 28.324-6.8086 41.301-2.5859 7.4375-7.3008 14.145-10.211 21.41v0.003906c2.0039-1.3086 3.9336-2.7305 5.7812-4.2539 3.2305-2.7305 5.9922-5.8828 9.1484-8.6836 3.8984-3.4727 9.7109 2.2656 5.7812 5.7734-3.832 3.4023-7 7.2305-11.203 10.281-3.793 2.7305-7.6914 5.3203-11.484 8.0859h-0.003906c-0.29688 0.20703-0.61719 0.37109-0.95703 0.49219-0.21484 1.207-0.4375 2.4102-0.67188 3.582l-0.003906 0.003906c2.1914-0.80078 4.3203-1.75 6.3789-2.8398 4.0078-2.1875 10.781-4.9258 13.562-8.5742 3.1875-4.1133 10.246-0.074219 7.0508 4.1094l0.003906-0.003906c-4.1797 4.4609-9.2031 8.043-14.785 10.531-4.4141 2.3086-8.9688 4.3359-13.641 6.0625-1.3125 8.8945-2.4102 17.863-3.6523 26.832 0.49219 1.2227 0.30469 2.6094-0.49609 3.6562-1.3398 10.133-3.2578 20.18-5.7422 30.094 0.36719 0.28125 0.68359 0.62891 0.92188 1.0273 6.0234 0.39453 12.125 0.35547 18.223 0.28516 2.4961-5.0586 5.9219-9.6055 10.102-13.398 7.1367-8.4609 13.457-17.574 18.875-27.227zm-39.539-353.12c3.7227-12.441-14.465-37.402-21.52-43.105-18.602-14.988-41.789-23.121-65.676-23.043-21.234 0-43.25 2.8359-61.438 14.816-3.0625 1.9844-8.3984 5.1406-14.355 8.8984 2.3008 7 3.3281 14.285 5.1406 21.375l0.003906 0.003906c7.2188-3.6602 14.781-6.6055 22.578-8.7969 17.855-5.875 36.723-8.0391 55.445-6.3594 27.863 2.8164 64.66 9.8359 79.82 36.211zm-3.3672 311.25v0.003906c2.1875-7.3203 5.0859-14.41 8.6484-21.168-14.992-5.4609-30.699-7.9766-45.621-13.469l-0.003906-0.003906c-5.418-1.9102-10.977-3.418-16.625-4.5 4.0781 15.672 7.7656 31.34 5.6406 48.496-0.99219 7.875-1.418 15.668-1.6328 23.504 4.7852 1.7734 9.625 3.4375 14.609 4.75 9.1875 2.4453 19 3.2969 28.109 5.9531 1.4609-14.637 3.75-29.184 6.8516-43.562zm-0.60547-345.22v0.003906c0.22266-0.23047 0.45703-0.44531 0.70703-0.64062-1.9805-5.5781-4.4258-10.988-7.3008-16.164-0.25781 2.1602-0.74219 4.2891-1.4531 6.3477 1.3828 1.5586 2.7305 3.1562 4.043 4.8555 1.1836 1.6016 2.5664 3.5078 3.9805 5.6016zm-1.7734 61.473c0.39062-3.0156 0.70703-6.0625 0.95703-9.043l0.003906 0.003907c-2.8555 4.3984-6.4961 8.2344-10.742 11.309 0.066406 0.19531 0.14844 0.38672 0.25 0.57031 3.168-0.93359 6.3555-1.8828 9.5117-2.8359zm-2.0547 14.922c0.28516-1.9844 0.57031-4.0078 0.85156-5.9883-18.328 5.5664-36.23 12.125-54.133 19.035l0.003906 0.003906c-14.133 5.9336-29.844 6.957-44.625 2.9062-16.129-4.6758-39.562-8.75-53.07-18.68-5.8828-4.2891-12.02-6.7344-16.664-12.512-3.6484-4.5352-0.77734-7.0586-5.5312-3.6523v-0.003906c-3.0664 1.418-5.5547 3.8438-7.0508 6.875 2.8164 0.79297 5.5586 1.8398 8.1914 3.1211 4.043 2.2109 7.6133 5.1992 10.5 8.793 29.602 6.4492 53.707 27.562 84.832 27.562 28.875 0 48.355-20.172 75.723-24.105h0.64063-0.003907c0.046875-1.1211 0.15234-2.2383 0.3125-3.3516zm-14.672 46.297c14.355-7.1914 14-21.438 14.074-34.738-26.945 4.6406-47.223 26.441-76.125 24.031-14.535-1.2031-29.242-2.4102-41.934-10.031l-0.003907 0.003906c-13.82-8.1367-28.816-14.09-44.453-17.652-1.2773 0.26953-2.5938-0.23047-3.3672-1.2773-2.6133-3.4648-5.9062-6.3594-9.6797-8.5039-2.8672-1.2578-5.8164-2.3125-8.8281-3.1602 0.26562 6.3477 0.95312 12.672 2.0547 18.93 1.5625 8.0508-0.4375 8.0156 6.3438 12.941 23.402 16.922 50.688 27.676 79.344 31.27 14.633 1.918 29.375 2.8672 44.133 2.8359 15.902 0 24.98-7.9414 38.418-14.645zm10.172-74.375c-0.64062-0.074219-1.3125-0.17969-1.9453-0.28516l-0.003906 0.003906c-2.7188-0.5-5.4648-0.82812-8.2227-0.99219h-11.797c-1.5664-0.375-3.1719-0.57812-4.7812-0.60547-0.24219 0.17969-0.50391 0.32812-0.78516 0.4375-1.4297 3.0195-3.5117 5.6836-6.1016 7.793-2.5547 2.0156-5.418 3.6055-8.4727 4.7148 3.8984 0.28125 7.8008 0.4375 11.664 0.4375 15.109-0.011718 23.016-2.1719 30.422-11.496zm-1.75 365.28c1.0625-5.5312 1.9844-11.129 2.7305-16.73-11.199-3.7578-23.926-3.1211-35-8.1914-2.1875-1.0273-4.5-2.0195-6.8047-2.9805-0.035156 5.5664 0 11.133 0 16.734v0.007813c0.46094 7.8672 0.49609 15.754 0.10547 23.625 6.3828-0.4375 12.797-0.5625 19.215-0.5625-3.543-4.4336-6.8438-9.1133-10.352-13.504-3.2305-4.0781 2.4805-9.8906 5.7812-5.7812 5.1016 6.3789 9.7109 13.469 15.383 19.355h6.2383v-0.070312l-0.003906-0.003907c-0.40234-0.46094-0.72656-0.98828-0.95313-1.5625-1.6094-3.5469-3.5547-6.9336-5.8125-10.113-2.8008-4.4688 4.2539-8.5781 7.0508-4.1484 0.82031 1.3125 1.6328 2.625 2.4102 3.9336zm-0.5625-163.71c1.5938 0.28516 1.3828-3.4727 0.5625-7.9062-9.5391-0.21484-26.977-6.4883-29.672-12.336-4.5-9.8164-3.793-20.809-7-31.02-1.0273-3.332-2.2344-6.6641-3.4375-9.9609 1.5586 14.996-1.4531 42.719 13.012 51.625h-0.003906c8.1211 4.9219 17.137 8.1875 26.527 9.6055zm-2.2344-18.508c0.070312-0.14062 0.10547-0.28516 0.17969-0.4375-0.28516-0.99219-0.5-1.75-0.60547-2.0195l-0.003906 0.003906c-0.17188-0.51562-0.24219-1.0586-0.21484-1.5977-4.0781-14.109-7.6914-28.852-10.988-43.105-1.7734-7.6562-0.070312-19.891-10.281-20.844-3.1211-0.25781-6.2227-0.69531-9.2891-1.3125-0.20703 0.67188-0.46484 1.3242-0.77734 1.9492-0.88672 1.5742-1.6367 3.2227-2.2344 4.9258-0.125 0.37891-0.30469 0.73828-0.53125 1.0664 3.0625 13.332 8.4062 26.129 11.168 39.598 1.9453 9.5391 4.6758 18.078 15.172 20.488 2.2031 0.43359 4.3711 1.0273 6.4844 1.7734 0.57031 0.28125 1.0664 0.53125 1.5273 0.74219v0.003906c0.058594-0.42969 0.18359-0.84766 0.38281-1.2344zm-5.6367-193.66c2.375 0.32031 4.9258 0.67187 7.5117 1.0977l-0.003906 0.003906c-8.0195-5.3203-16.727-9.5312-25.879-12.512 1.418 3.6484 2.3008 7.4766 2.625 11.375h1.5586c4.7227-0.26953 9.457-0.25391 14.176 0.042969zm-10.043 104.45c6.1641-1.9531 13.75-5.3555 13.859-12.547-8.668 6.3242-18.375 11.086-28.684 14.07 1.9023 2.5859 5.4844 3.2539 8.1914 1.5234 2.0859-1.2656 4.3125-2.2891 6.6328-3.0469zm14.035-173.95c-2.3164-4.0352-4.8867-7.9219-7.6914-11.629-0.85938 2.2656-1.9062 4.4609-3.1211 6.5625 0.84766 0.35547 1.7031 0.67188 2.5156 1.0273 2.875 1.1094 5.6484 2.4609 8.2969 4.0391zm-0.67187 14.438c-0.28125-8.4375-10.672-10.938-19.496-14.68-15.207-6.418-34.957-12.547-51.512-12.547-15.895-0.29687-31.699 2.418-46.582 8.0078-10.953 3.8555-21.504 8.7734-31.5 14.68-6.2734 3.8984-7.6562 6.2734-6.9141 11.625 8.543-5.9883 17.297-11.023 22.438-14.145 25.418-15.457 53.742-17.617 82.688-14h0.003907c18.656 1.8672 36.352 9.1875 50.871 21.047zm-35.34 30.625c14.145 5.25 28.5 9.1445 41.051 16.91-12.688-12.832-33.145-20.027-49.809-22.195h-0.003906c-20.551-3.2734-41.535-2.6602-61.859 1.8086 23.289-0.66406 48.777-4.5781 70.617 3.4688zm22.719 56.234c-0.14453-0.39062-0.28516-1.168-0.39062-1.168h-0.074219c-20.945-0.089843-41.855-1.832-62.531-5.2148-23.293-3.6484-46.621-3.2227-70-6.0234-1.0352-0.14844-2.0586-0.375-3.0625-0.67578 1.1875 2.1211 2.9102 3.8945 4.9961 5.1406 10.406 6.0586 21.484 10.875 33.008 14.359 10.137 2.7305 19.992 7.7266 30.273 9.8164 13.766 2.3594 27.922 0.26172 40.41-5.9883 8.8672-3.918 18.082-7.2148 27.371-10.246zm-0.46484-120.04c-0.64062-0.63281-1.2383-1.3125-1.875-1.9453-0.70703-0.70703-1.4531-1.3477-2.1875-2.0195-0.25 0.5625-0.46484 1.2031-0.71484 1.7031-1.1328 2.3398-2.8711 4.2539-4.0742 6.5234l0.003906-0.007812c-0.74609 1.3672-1.5625 2.6914-2.4453 3.9688 2.1875 0.78125 4.375 1.5977 6.5625 2.4453 2.0664-3.2305 3.6328-6.7539 4.6406-10.457zm-20.418 99.91c10.352-6.5234 5.5664-17.195 1.9844-26.059-0.035156-0.14062-0.035156-0.25-0.070312-0.35547-4.6445-1.4531-9.2188-2.8008-13.613-4.1836-19.57-6.2031-45.73-0.875-66.289-0.78125-2.0547 3.7969-4.1875 7.5156-6.2773 11.273-1.5938 2.9453-2.7305 5.9922-4.5352 8.6836v0.003906c4.4219 3.1172 7.5469 7.7461 8.793 13.012 0.035156 0.17969 0.035156 0.32031 0.070312 0.5 14.438 1.0273 28.438 2.4453 42.875 4.0391 2.0195 0.25 4.0781 0.46484 6.0977 0.70703 0.40234-0.20312 0.83203-0.33594 1.2773-0.39062 0.55859-0.41797 1.2188-0.67578 1.9141-0.74609 4.2344-1.0078 8.5352-1.7383 12.871-2.1875 5.1992 0.25781 10.367-0.96094 14.902-3.5156zm-2.4102 136.66c-0.027344-0.027344-0.039063-0.066406-0.035156-0.10547 0 0.019531-0.015625 0.035157-0.035157 0.035157zm-0.77734-39.953c-0.10938-0.14062-0.21484-0.28125-0.32031-0.39062v0.003906c-0.12109-0.17969-0.22656-0.36719-0.32031-0.56641-1.4531 0.10547-2.9102 0.21094-4.4336 0.21094-6.5938 0-13.047 0-19.426-0.24609h0.003907c-0.24219 1.0234-0.91797 1.8867-1.8477 2.3711-0.77734 0.4375-1.4883 0.875-2.1875 1.3125 1.168-0.10547 2.3047-0.24609 3.2227-0.39063 8.1562-1.5234 16.484-1.6328 24.676-2.3398 0.24219 0.019531 0.41797 0.046875 0.63281 0.046875zm-0.67188 85.578c-0.21484-0.67188-0.39062-1.418-0.64062-2.1602v0.003906c-2.7305-10.41-4.1992-21.113-4.375-31.875-0.4375 0.5-0.77734 1.0273-1.2383 1.4883-3.5625 3.5312-7.6133 6.5312-12.031 8.9062-3.8672 2.2344-6.9141 5.3203-10.637 7.6953v0.003906c-0.097656 0.039062-0.19141 0.085938-0.28516 0.13672 0.25 0.70703 0.4375 1.418 0.70703 2.1602 7.4102 0.035156 19.109 1.3828 21.875 9.9258l0.003906 0.003906c0.82813 3.0156 0.75391 6.2109-0.21484 9.1875 2.2617-1.7773 4.3516-3.7969 6.832-5.4648zm-2.625 117.59-0.003906 0.003906c-0.51172-12.797-1.8242-25.547-3.9375-38.176-0.22656-2.1445-0.63672-4.2656-1.2188-6.3398-8.8633-1.4883-17.832-2.6602-26.766-4.7148-4.7812-1.0977-9.8867-1.9805-15.137-2.6562 0.92188 7.3359 1.457 14.672 1.7031 21.766 0.14453 5.25-8.0117 5.25-8.1875 0-0.19922-7.6016-0.80469-15.188-1.8125-22.723-11.484-1.0977-23.254-1.5234-33.855-1.5625-7.875 0-15.812-0.17578-23.75-0.28125 0.25 3.293 0.21484 6.6289 0.25 9.9219 0 2.2617-1.832 4.0977-4.0938 4.0977-2.2617 0-4.0977-1.8359-4.0977-4.0977 0-3.2227 0.21484-6.6641-0.10547-9.957-8.543 0-17.09 0.21094-25.559 0.91797 0.46094 3.6172 0.91797 7.2305 1.2031 10.777 0.99219 13.562 3.4375 26.73 4.1133 40.383v-0.003906c0.039062 0.59766-0.046875 1.1914-0.25 1.75 0.95703 4.9961 2.2344 9.9609 3.6172 14.875h0.003906c0.65234-0.20312 1.332-0.3125 2.0195-0.31641 5.8477 0 11.812-0.10547 17.828-0.25-0.10547-2.4805-0.21094-4.8906-0.21094-7.1953v-0.003907c-0.015624-1.2539 0.34375-2.4883 1.0273-3.543-0.68359-1.0508-1.043-2.2852-1.0273-3.543 0-7.0938-0.25-15.848-0.4375-23.82-0.10937-5.25 8.0469-5.1406 8.1523 0.10547 0.17969 7.9766 0.46484 23.719 0.46484 23.719v-0.003906c0.011719 1.2578-0.34766 2.4883-1.0312 3.543 0.68359 1.0547 1.043 2.2891 1.0312 3.543 0 1.8125 0.14062 4.2578 0.31641 7h-0.003906c18.977-0.80859 37.984-0.57031 56.938 0.71094-1.0312-8.4453-1.5781-16.945-1.6328-25.453 0-3.543 8.1914-3.543 8.1914 0 0.046875 8.8047 0.60547 17.598 1.6641 26.336 6.4023 0.75781 12.758 1.8594 19.039 3.3008 8.1562 2.0586 16.164 4.6758 23.965 7.8359 0.59375-8.6641 1.5195-17.277 1.5859-25.934zm-1.0273-180.48v-0.10547c-1.4531 0.67188-2.9766 1.2773-4.5 1.875l-0.003906 0.003906c-0.28125 1.543-0.80859 3.0273-1.5586 4.3984-2.6445 4.1172-6.2305 7.543-10.461 9.9961-0.070313 0.070312-0.14062 0.17969-0.24609 0.28516-0.21875 0.24219-0.47266 0.45703-0.74609 0.64062-0.67969 1.082-1.875 1.7266-3.1562 1.6992-0.94531 0.51953-2.082 0.55859-3.0625 0.10547-0.30078-0.074218-0.59375-0.17969-0.875-0.32031-4.6289-2.5781-8.8086-5.8945-12.371-9.8164-2.957-2.3555-5.1406-5.543-6.2695-9.1523-0.25781-1.1758-0.32812-2.3828-0.21484-3.5781-6.9688 2.3984-14.641 1.6328-21-2.0938-1.0625 0.88281-2.2578 1.5898-3.543 2.0938 3.0156 4.5 5.8477 9.0742 8.543 13.402 1.2383 1.9805 2.5859 4.0781 3.9375 6.2383 1.1094-0.43359 2.3516-0.32812 3.3711 0.28125 4.9961 2.8359 18.375 5.6875 20.203 12.191 1.0273 3.7227 2.2695 7.3711 3.582 10.988v0.003906c2.4336-2.0547 4.9766-3.9805 7.6133-5.7656 3.8984-1.8438 7.5273-4.2148 10.777-7.0508 6.0664-6.7617 9.4844-15.488 9.625-24.57 0.011718-0.59766 0.13281-1.1836 0.35156-1.7383zm-1.1328 258.01c2.2305-11.949 0-26.625 0-38.535 0-1.918 0.14062-3.793 0.21484-5.7109l-0.003906 0.003906c-9.9727-3.8008-20.344-6.4648-30.914-7.9414-3.2305-0.39062-6.7734-0.77734-10.531-1.0977 0.070313 0.4375 0.14453 0.92188 0.17969 1.3828l1.0625 1.168c1.543 1.6172 1.543 4.1641 0 5.7812-0.035156 0-0.035156 0-0.070312 0.035156 0.84766 5.6406 1.6641 11.238 2.4102 16.84h0.003906c1.2422 0.61328 2.0938 1.8125 2.2656 3.1914 0.16797 1.3789-0.36328 2.75-1.418 3.6484 0.94531 7.8594 1.4648 15.766 1.5625 23.684 0 0.69922-0.19922 1.3867-0.57031 1.9805 9.6406-0.59375 19.238-1.7266 28.75-3.3984 2.3398-0.38672 4.6797-0.73828 7.0547-1.0195zm-10.5-190.83c3.4023-7.7617-4.7812-9.4297-10.879-9.7461 0.14062 0.74219 0.35547 1.4531 0.49609 2.1602h-0.007813c1.4375 5.9414 3.6523 11.664 6.5938 17.02 1.1406-3.2188 2.4531-6.375 3.7969-9.4219zm2.9102 58.707-0.003906 0.003906c-1.4844-9.875-3.7852-19.613-6.8789-29.109-2.5156-8.8594-8.6836-16.695-11.879-25.344h0.003906c-0.91016 0.17578-1.8516 0.019531-2.6562-0.4375-2.918-2.2031-6.168-3.9258-9.625-5.1055-2.7734 4.0273-6.8594 6.9648-11.559 8.3125-10.844 4.043-36.41 14.074-45.27 0.39062-10.461-16.094-15.672-36.312-27.406-51.652-5.0703-6.5938-10.938-15.953-18.258-21.438h0.003906c4.25 7.5352 6.8125 15.906 7.5156 24.531 1.7969 20.699 2.293 41.492 1.4883 62.25 3.6172-0.070313 7.1602 0.070312 10.211 0.070312 16.273 0.19531 32.484 2.1211 48.352 5.7461 5.1406 1.0977 2.9805 8.9688-2.1602 7.875-7.9414-1.7031-39.527-8.4375-56.934-6.3125-1.4922 1.4492-3.6914 1.9062-5.6406 1.1719-3.3633 1.0977-5.5664 2.8711-5.9531 5.5312-0.11719 0.80078-0.48828 1.5469-1.0625 2.125-0.50781 4.6758-0.51953 9.3945-0.035157 14.074 8.082-0.74219 16.305-1.1719 24.602-1.3477-0.59766-1.8828-1.2383-3.793-1.8438-5.6875-1.5625-5.0312 6.3086-7.1953 7.875-2.1875 0.8125 2.625 1.7031 5.1758 2.4102 7.8008 10.387-0.039062 20.738 0.28125 30.77 0.875 8.6836 0.5 17.867 0.60547 26.906 1.1719-1.7031-9.8945-4.9062-19.469-9.4961-28.398-2.4844-4.6406 4.5352-8.75 7.0508-4.1484 5.3477 10.457 9.0078 21.691 10.852 33.289 4.3281 0.4375 8.625 1.1367 12.867 2.0938 8.0312 1.8789 16.926 2.7344 25.754 3.8672zm-12.301-119.14c-0.10547-0.10547-0.25-0.17969-0.32031-0.32031-1.8672-1.6641-3.5977-3.4805-5.1758-5.4258-1.543-2.5039-3.3125-4.8633-5.2812-7.0508-1.1328-1.0977-2.4102-1.2422-1.6328-2.375-0.52734 0.59375-0.92578 1.293-1.168 2.0547-1.3008 2.5078-0.69922 5.5781 1.4531 7.4062 2.7344 3.1367 5.8008 5.9688 9.1484 8.4414 0.47266-0.47266 1.0234-0.85547 1.6289-1.1328 0.21484-0.11328 0.44141-0.20703 0.67188-0.28516 0.16016-0.46875 0.38672-0.91016 0.67578-1.3125zm-16.41-27.441c1.875-1.1328 3.5781-2.4102 5.3164-3.6484h-0.003906c-5.8867-0.51172-11.742-1.3281-17.547-2.4453-2.8359-0.57031-5.7461-1.1367-8.6133-1.7031 2.4453 2.2227 5.2148 4.0625 8.2109 5.457 3.625 2.1992 8.3125 5.0352 12.637 2.3398zm-1.0664 78.594h-0.003906c3.0625 0.74609 5.9688 2.0312 8.582 3.793-1.6055-9.7617-4.707-19.219-9.1875-28.039-2.5703-3.5195-6.1953-6.1289-10.352-7.4375 3.1055 5.5156 4.7969 11.715 4.9258 18.047 0 0.035156 0.035156 0.035156 0.035156 0.070312 2.875 4.0781 4.9141 8.6914 5.9961 13.566zm-5.0312 204.91h-0.003906c-0.64062-0.73828-1.0039-1.6797-1.0273-2.6602-0.070312-8.0703-0.60156-16.129-1.5977-24.141-1.3398-0.5625-2.6133-1.2773-3.793-2.125-2.4883-2.2227-4.8438-4.5898-7.0508-7.0938-3.582-3.3672-9.2891-6.8789-10.426-11.984-1.1367-5.1055 6.7031-7.3008 7.8359-2.1602 0.77734 3.3672 7.1602 7.1953 9.5391 9.5 0.875 0.85156 1.6328 1.6328 2.4102 2.375-0.70703-4.7852-1.418-9.5664-2.0898-14.438h-0.003907c-0.78906-0.65625-1.6445-1.2266-2.5547-1.7031-1.6758-0.78516-2.4609-2.7305-1.8086-4.4609-17.902-1.1016-38.355-1.4922-54.168-1.6328h0.003907c0.20312 4.6836-0.16797 9.3711-1.0977 13.965 1.0078-1.0352 2.4883-1.457 3.8906-1.1055 1.4023 0.35156 2.5117 1.4219 2.9102 2.8086 0.46484 1.8125 4.6094 4.7852 6.2773 6.3828 2.5742 2.543 5.2969 4.9297 8.1523 7.1484 5.8828 4.6445 12.125 9.0078 18.258 13.297 4.293 3.0156 0.21484 10.062-4.1133 7.0586-7.7266-5.4258-15.098-11.203-22.578-16.84-4.5703-3.4375-12.336-9.1133-13.859-14.852-0.039062-0.14453-0.039062-0.25-0.074219-0.35547 0 0.035156-0.035156 0.070312-0.035156 0.14062-4.8555 11.52-2.5156 37.684-2.5156 37.684 0 0.17969-0.070312 0.28516-0.070312 0.46484 1.75 0.4375 3.7227 0.77734 6.0234 1.1328 10.387 1.5234 20.668 1.7734 31.062 2.7305v-0.007813c10.801 1 21.66 1.293 32.5 0.87109zm-2.2695-274.82c-0.39062-0.070312-0.74219-0.035156-1.168-0.14062l-0.003906 0.003906c-4.8633-1.707-9.3828-4.2773-13.332-7.5898-0.46094-0.32031-0.875-0.60547-1.3125-0.92188-0.16406 0.35547-0.35547 0.69922-0.5625 1.0273 0.16406 0.42578 0.29688 0.86719 0.39062 1.3125 0.27734 1.5234 0.42969 3.0625 0.45703 4.6094 0.070313 0.074218 0.17969 0.10938 0.25 0.17969 4.4883 3.1094 10.262 3.6875 15.277 1.5195zm-17.48 81.93c9.5742-3.4023 16.062-7.0508 14.781-14.32l-0.10547 0.21094c-6.418 8.5469-25.09 10.734-34.742 8.3672-1.1367-0.21094-2.1055-0.96094-2.5977-2.0078-0.37109-0.41406-0.66016-0.89453-0.85156-1.418-6.4883-17.16-19.035-34.922-29.75-49.809-7.4805-10.422-15.637-20.207-28.574-23.855-3.6992-0.94141-7.4531-1.6484-11.238-2.1289 0.10547 0.37891 0.14453 0.77734 0.10937 1.168 6.8438 2.207 13.422 5.1797 19.598 8.8633 9.2188 6.0234 19.465 22.406 24 32.047 3.7227 7.8359 9.3945 14.285 13.012 22.016 2.4844 6.6875 5.4062 13.199 8.75 19.496 4.8477 7.4336 20.98 3.7109 27.609 1.3711zm10.281-21.75c2.625-5.25-3.0625-15.918-5.0312-19.812-5.25-10.5-12.688-19.215-18.609-29.246l-0.003907-0.003906c-5.1289-9.3672-13.031-16.918-22.617-21.625-4.5-2.3047-17.762-13.082-22.617-9.9961h-0.003906c-0.13672 0.085938-0.28516 0.15625-0.4375 0.21094-0.47266 0.76172-1.1836 1.3477-2.0195 1.6641-6.6289 3.2852-13.801 5.3398-21.164 6.0664-1.0273 0.070313-5.6875 0.070313-9.625 0.10547-0.027344 0.042969-0.039062 0.09375-0.035156 0.14453-0.25 0.59766-0.21484 0.32031-0.17969 0.63281h0.003907c10.898 1.6211 21.27 5.7734 30.273 12.129 11.273 7.4375 18.965 24.062 26.199 34.918v-0.003906c7.4453 10.43 13.848 21.566 19.109 33.25 8.2148 1.2969 23.211-1.3945 26.758-8.4336zm-17.938-60.23c-0.082031-0.20312-0.11719-0.42188-0.10547-0.64062v-2.0547c-0.39453-3.043-1.293-6.0039-2.6602-8.75-5.8828-0.69922-11.668-2.0312-17.266-3.9727 6.9727 4.2656 13.043 9.8555 17.867 16.449 0.79688-0.16406 1.543-0.52344 2.1641-1.0508zm-11.027-134.27c1.8125-2.9336 3.4453-5.9766 4.8906-9.1094-10.598 3.2891-20.629 8.1758-29.75 14.5-1.418 1.0273-2.7305 1.9844-3.9688 2.8359h0.003906c7.5195 0 14.992 1.1719 22.152 3.4727 2.4531-3.7656 4.6797-7.6719 6.6719-11.699zm-3.9805 111.49c-0.019531-0.17578-0.019531-0.35156 0-0.52734-5.8086-1.9023-11.395-4.4219-16.664-7.5156-6.125-3.6523-12.191-7.4375-18.293-11.168 3.2227 11.203 25.168 16.77 34.422 19.074 0.12109 0.019531 0.33203 0.10156 0.53516 0.13672zm-10.551-171.33 2.8711-1.1719c-1.9102-2.5156-3.7578-5.1758-5.3867-7.8359-1.7656-3.3594-3.9844-6.4609-6.5938-9.2188-1.7031 1.5586-3.4023 3.1875-5 4.9609 1.8594 3.2578 3.9023 6.4062 6.125 9.4297 1.5977 1.7188 2.9766 3.6289 4.1094 5.6875 1.3242-0.64844 2.6133-1.2656 3.875-1.8516zm15.562 88.41c-5.0703-10.5-25.738-12.125-35.098-12.297 4.75 11.379 22.832 11.906 35.094 12.297zm-23.926-33.535c-2.0195-7-3.0625-14.215-5.0703-21.234-10.535 7.1602-20.641 15.508-21.129 22.156-0.078125 1.0703-0.57422 2.0664-1.3828 2.7656-1.7383 15.086 17.297 3.2266 27.578-3.6875zm-2.6992-49.273c-1.6016-2.5273-3.418-4.9102-5.4258-7.1289-1.125-1.625-2.1445-3.3203-3.0625-5.0703-10.137 14.5-17.062 31-20.312 48.391 0.15625 0.09375 0.30469 0.19922 0.4375 0.32031 0.69922 0.71484 1.2539 1.5547 1.6328 2.4805 3.5078-4.4766 7.5469-8.5156 12.031-12.02-0.8125-3.6484-5.6875-12.867-1.2773-16.305 5.0703-3.9219 10.41-7.4883 15.977-10.668zm-9.2891 402.82c-9.625-0.035157-16.305 0.035156-17.688 0.035156 4.3164 12.438 7.3672 25.273 9.1094 38.32-0.10156 4.793 1.3398 9.4922 4.1133 13.402-0.5-10.281-2.5156-23.398 1.418-32.719 2.2617-6.082 3.2969-12.555 3.0469-19.039zm-3.6172-323.98c-2.207-3.1016-3.7383-6.6289-4.5-10.355-1.4258 0.16016-2.8555 0.24219-4.2891 0.24609-2.4336 0.054687-4.7969-0.83594-6.5938-2.4805 0.25 8.1367 0.94531 16.258 2.0938 24.32 2.9883-5.293 7.668-9.4219 13.289-11.73zm-12.547 377.56c1.6328-19.688-5.1758-37.75-10.707-56.047-3.0117 1.8984-6.3555 3.2109-9.8555 3.8672-5.8125 1.5586-11.52 4.1484-17.402 5.4219v-0.003906c-6.7891 1.5312-13.812 1.6992-20.668 0.5 1.0625 5.6367 1.3828 13.539 5.3867 16.449 1.8086 1.125 3.0312 2.9922 3.332 5.1016 0.15625 4.6719-0.09375 9.3438-0.74219 13.969 0 3.1562-1.5273 11.023 0.17578 14.18h-0.003906c2.4258 0.31641 4.8633 0.48438 7.3086 0.5 13.043-0.10938 30.734 2.9062 43.281-2.3047-0.125-0.54297-0.16016-1.0977-0.10547-1.6484zm-8.4961-411.03c0.035156-1.4219 0.32031-4.0781-1.9102-3.832-0.99219 0.14453-3.0625 0.46484-3.5469 1.5273-1.75 3.5781-3.0625 7.4805-0.070313 10.422 1.0273 1.0273 1.6328 2.1875 3.1211 1.918 0.32031-0.035156 1.3125-0.39062 1.7734-0.4375l-0.007813-0.003906c0.39453-3.1836 0.60547-6.3867 0.64062-9.5938zm0.17969 201.43c-0.10938-2.5195-0.21484-5.0352-0.39063-7.625-0.78125-12.547-2.2344-22.934-7.5508-32.188-1 0.58594-2.1406 0.88672-3.2969 0.875-2.7695-0.12891-5.5469-0.11719-8.3125 0.035157-1.3984 0.91016-3.2539 0.63672-4.3281-0.63672-4.7109-3.8633 1.75-7.0234-7.1562-11.77-8.1328-5.0508-17.777-7.0977-27.262-5.7812-3.375 0.47266-6.6914 1.3047-9.8906 2.4805 4.7539-0.050782 9.5 0.4375 14.145 1.4531 6.3477 2.1211 12.457 4.9102 18.219 8.3125 0.41016-0.56641 0.84766-1.1094 1.3125-1.6289 3.4727-3.9727 9.2148 1.8438 5.7383 5.7734l0.003906 0.003906c-3.418 4.1172-5.6719 9.0742-6.5234 14.359-0.33203 4.1758-1.2031 8.293-2.5859 12.25v0.035156c8.1914 10.062 14.875 21.438 22.473 31.902 3.7578 5.2148 8.0117 9.625 11.523 14.504v-0.003906c-0.125-0.98828-0.19531-1.9805-0.21094-2.9766 0.21094-6.0586-0.14453-12.125-1.0664-18.117-2.3633-8.4727-5.3242-16.762-8.8633-24.816-1.7734-4.9609 6.0977-7.0859 7.875-2.1875 1.9883 5.4648 4.2539 10.531 6.1367 15.746zm-9.1133 47.688c0.82422-0.98047 1.8086-1.8203 2.9102-2.4805-2.5898-7.5508-8.543-12.586-13.262-19.074-7-9.7109-13.504-19.781-20.488-29.492-5.4258-7.4805-33.645-33.43-49.844-33.289 13.613 4.1133 25.098 15.527 37.438 25.633 26.199 21.48 30.273 46.934 30.129 78.98 0.039062-0.003906 0.082031 0.007813 0.10938 0.035156 1.2422-0.17969 2.4961 0.22656 3.3906 1.1016 0.89844 0.87891 1.3359 2.1211 1.1836 3.3672 1.1602 0.019532 2.3125 0.23438 3.4023 0.63672-0.38281-7.6172 0.37109-15.254 2.2305-22.652 0.29688-1.3945 1.3906-2.4844 2.7891-2.7734zm-8.8008-95.195c1.5234 0 3.1211 0.17578 4.6055 0.32031-1.6875-1.9062-3.5117-3.6836-5.4609-5.3203-0.4375-0.17578-0.8125-0.35547-1.2383-0.49609 0.53125 0.68359 0.99219 1.418 1.3828 2.1875 0.4375 1.0508 0.67578 2.1719 0.71094 3.3086zm-10.672 124.29c-8.3359-0.18359-16.5-2.3984-23.789-6.4531 0.8125 1.293 0.91406 2.9102 0.26953 4.293-0.64453 1.3828-1.9492 2.3438-3.4609 2.5508-8.5117 0.67969-16.723 3.4297-23.926 8.0117-1.3906 0.90625-2.8359 1.7227-4.3281 2.4453 4.2227 3.5781 19.32 1.2773 24.25 3.332 4.5391 2.1133 8.8828 4.6289 12.973 7.5156 3.7227-4.5781 9.1484-6.0625 11.812-12.164v0.003906c1.7852-3.3516 3.8594-6.543 6.1992-9.5352zm-1.8086-8.2266c0.21094-24.891-0.46484-49.102-20.242-67.289-15.672-14.395-37.828-39.031-61.363-28.926l-0.67188 0.21484c-1.7773 1.3828-3.582 2.6953-5.4258 3.9688 0.125 6.9336-0.24219 13.863-1.0977 20.742 0.88672-0.58984 1.9844-0.77734 3.0156-0.51562 1.0352 0.26562 1.9062 0.95312 2.4023 1.8984 2.6953 4.8906 5.2852 9.8516 7.9805 14.781 2.5156 4.6055-4.543 8.7188-7.0586 4.1133-2.375-4.3281-4.6797-8.7227-7.0508-13.047-0.75 13.047 0.875 26.797-4.0781 39.062v0.003907c-1.0859 2.7266-2.4766 5.3203-4.1484 7.7305 9.8867-0.074219 20.062 0 29.957-0.53516 0.28125-0.039062 0.56641-0.0625 0.84766-0.066406 4.2578-11.168-1.5938-23.625-3.543-34.707-0.875-5.1406 7-7.3359 7.875-2.1602 2.0898 11.91 7 24.105 4.4336 35.945v-0.003906c3.293-0.42188 6.6367-0.29297 9.8867 0.39062 0.875-1.7031 1.8125-3.4023 2.875-5.0664 2.207-4.3359 3.8164-8.9531 4.7852-13.719-0.5-1.457-0.99609-2.9492-1.4922-4.4688-1.5586-5.0352 6.3125-7.1602 7.875-2.1875 2.7539 6.6914 4.6367 13.711 5.6016 20.883 0.17969 3.3672-0.32031 7.3711-0.35547 11.168 1.1719 0.4375 2.3398 0.91797 3.4375 1.4531 0.67188 0.28516 1.3125 0.59766 1.9531 0.91797 5.3164-33.25-15.031-69.875-47.25-79.336-2.1758-0.59766-3.4531-2.8438-2.8555-5.0156 0.59375-2.1758 2.8398-3.457 5.0156-2.8594 22.938 6.7383 36.973 20.172 46.336 42.613 6.8828 15.199 9.0703 32.113 6.2734 48.562 4.9023 2.9648 10.391 4.8242 16.082 5.457zm-11.309-102.98c0.42188-1.1992 0.91797-2.3672 1.4883-3.5-5.7344-3.5625-11.973-6.2383-18.508-7.9414-7.7891-0.73047-15.621-0.875-23.43-0.4375-0.68359-0.011719-1.3555-0.19141-1.9492-0.52734-0.53125 0.80859-0.99609 1.6602-1.3828 2.5508 1.707 0.16406 3.375 0.62109 4.9258 1.3477 10.246 5.1758 25.031 10.988 33.5 18.895 0.95703 0.91797 1.8438 1.875 2.7656 2.8008 0.17969-1.3125 0.35547-2.6953 0.46484-3.3672v-0.003906c0.42969-3.3242 1.1406-6.6094 2.125-9.8164zm-8.1914 223.56c0.39062-4.043-5.2109-7.3008-5.8477-11.594-0.57031-5.0977-1.6289-10.129-3.1562-15.027-0.22266-0.57812-0.29688-1.1992-0.21094-1.8125-0.16016-0.26953-0.28906-0.55469-0.39062-0.84766-2.4766-7.1914-3.8047-14.73-3.9375-22.336 0.23828-2.918-0.33594-5.8477-1.6562-8.4609-1.3203-2.6133-3.3359-4.8125-5.8242-6.3555-2.3398-1.5977-4.5703-3.2969-6.8086-5-4.0781-3.1875-0.035156-10.242 4.1133-7.0508v-0.003906c4.5703 3.0469 8.8711 6.4766 12.867 10.246 2.1133-5.8789 5.2344-11.344 9.2227-16.156-2.0391-1.4922-4.1719-2.8516-6.3789-4.0781-5.5859-2.4727-11.66-3.6367-17.762-3.4023-4.3555 0.023438-8.6484-1.0508-12.48-3.1211 2.6602 16.52 10.102 29.75 15.848 45.801 2.3398 6.5938-1.1719 14.922 1.4531 22.156 4.2578 9.8984 7.5234 20.195 9.7461 30.738 0.69922 4.3047 0.51953 8.707-0.52734 12.938-0.60547 2.625 4.5 4.5703 10.5 5.8477v0.003906c-0.45313-7.5234-0.039063-15.07 1.2305-22.496zm-5.6875-120.11c0.17969-0.019531 0.35938-0.019531 0.53516 0l-4.4688-2.2305 0.003907-0.003906c-0.98047 1.1406-2.5039 1.6602-3.9766 1.3555-1.4727-0.30078-2.6641-1.3789-3.1172-2.8125-0.17578-0.70703-0.35547-1.418-0.46094-2.125-0.875-0.4375-1.8086-0.8125-2.7305-1.168h0.003907c-1.5898-0.62891-3.2109-1.1758-4.8594-1.6328-0.74219 1.668-1.4531 3.332-2.2305 5-2.1641 4.7812-9.1875 0.63281-7-4.1133 0.39062-0.875 0.77734-1.7031 1.1328-2.5547v0.003907c-3.0078-0.42969-6.0352-0.67969-9.0742-0.74609-0.75 1.0742-1.9805 1.7109-3.2891 1.7031s-2.5312-0.65625-3.2734-1.7383c-10.137 0.25-20.488 1.418-30.129 1.4883-1.9648 0.09375-3.6523-1.3711-3.832-3.3281-8.1523 7.4062-19.531 8.5391-33.109 7.1562-5.1758-0.49609-5.25-8.6836 0-8.1875 11.879 1.2031 29.461 1.875 33.609-13.754h-0.003906c1.8086-7.3594 2.7695-14.902 2.8711-22.477-5.3867 3.8867-11.035 7.3945-16.91 10.5-8.3984 4.6055-15.348 11.164-24.676 14h0.003907c-2.1758 0.60156-4.4297-0.67188-5.0312-2.8438-0.60547-2.1758 0.66797-4.4297 2.8438-5.0312 8.6484-2.625 14.875-9.0781 22.75-13.191 7.8242-3.8086 15.09-8.6758 21.59-14.465 0.57031-8.8242 1.0977-17.23 1.4883-25.879-10.266 5.5039-21.016 10.043-32.117 13.562-5.0352 1.6641-7.1602-6.207-2.1875-7.875 4.375-1.457 8.2188-3.582 12.688-4.7148 3.9844-0.72266 7.8242-2.0898 11.375-4.043 3.3672-2.2305 7.0234-4.375 10.602-6.5625v-0.32031h-0.003907c-0.85547-0.80859-1.2539-1.9922-1.0625-3.1523-6.4297 3.5781-13.477 5.9141-20.77 6.875-5.1406 0.875-7.375-7-2.1875-7.875 8.7031-0.71875 16.977-4.1094 23.68-9.7109-0.035157-0.67188-0.070313-1.2773-0.070313-1.75 0.070313-2.5898-0.21484-6.4883 1.7734-8.4727 3.1289-3.5898 5.2773-7.9219 6.2383-12.586-0.875 0.64062-1.75 1.2383-2.4805 1.75-5.7812 4.3281-11.629 8.6133-17.723 12.477-4.4336 2.8008-8.543-4.2539-4.1133-7.0508 4.4297-2.8008 8.5938-5.7695 12.809-8.832 3.0625-2.1875 9.8555-5.8125 12.09-9.5391-8.543-1.0625-23.113 14.359-30.027 15.812-5.1406 1.0977-7.3398-6.7695-2.1875-7.875 7.8359-1.6289 16.309-10.812 24.891-14.641-5.2852-2.9102-12.02-6.2383-18.152-9.1484-7.7266 19.785-19.426 36.445-28.395 55.48-8.2305 16.227-14.539 33.363-18.789 51.055-2.2695 10.844-2.9805 22.086-7.1953 32.293l1.168 2.3398c0.63281 1.3438 0.49609 2.9258-0.35547 4.1445 3.2422 3.6133 7.1719 6.5391 11.559 8.6172 7.3359 3.4375 15.242 8.5078 23.684 7.6953 5.8125-0.57031 11.59-1.5625 17.402-2.0547v-0.003907c1.582-0.066406 3.0508 0.83203 3.7031 2.2773 0.65625 1.4414 0.37109 3.1406-0.72656 4.2852 12.301 2.125 24.746-5.9219 36.41-9.6758 5.0312-1.6328 7.1562 6.2734 2.1875 7.875-2.6953 0.85156-5.3516 1.8828-8.0117 2.9102 4.875 3.0312 10.355 4.957 16.059 5.6328 6.9531 0.10938 9.5391-2.5508 15.281-5.4258 7.625-3.7109 15.863-5.9844 24.312-6.7148zm-4.9102-277.42c1.7305-4.6367 1.7461-9.7422 0.035156-14.387-0.71484-0.75-1.0703-1.7695-0.97266-2.8008l0.10938-0.99219c-0.14453-0.83203-0.019531-1.6914 0.35547-2.4453 0.26172-1.1953 0.45312-2.4023 0.5625-3.6211-3.9883-2.125-8.7188-2.3594-12.902-0.63672-3.3672 1.9844-8.1914-0.070313-11.523 1.7734-4.6055 2.5195-8.75-4.5352-4.1094-7.0508l0.003906-0.003906c2.9453-1.2422 6.1211-1.8555 9.3203-1.8047 3.1445-0.75391 6.3242-1.3242 9.5352-1.7031 0.81641-0.035156 1.5625-0.074219 2.3047-0.074219-3.6328-1.7969-7.6992-2.5312-11.734-2.1289-9.2148 0.79688-18.34 2.4336-27.262 4.8945-0.75391 0.20312-1.5547 0.19141-2.3047-0.035156-5.1875 7.3125-9.0078 15.504-11.273 24.18-0.75781 6.5781-1.1367 13.191-1.1328 19.812 1.1016 0.76953 1.7422 2.0391 1.707 3.3789-0.035156 1.3438-0.74219 2.5781-1.8828 3.2852-0.046876 0.25-0.13281 0.48828-0.25 0.71484-0.21484 0.91797-0.67188 2.6914-1.1719 4.6055 8.0469-1.4531 16.352-0.050782 23.473 3.9688 2.7656 1.75 6.0234 3.1953 8.9688 4.9648 2.2461-3.3125 4.293-6.7578 6.125-10.316 1.668-3.4727 4.1875-6.7031 5.6406-10.316-0.45312-1.3398-0.48828-2.7852-0.10938-4.1484 0.73438-4.2578 1.2578-8.5508 1.5586-12.863l-1.2773 0.95312c-3.1211 2.4844-9.1445 2.3398-9.0391-2.8711 0.019532-1.0859 0.48047-2.1172 1.2773-2.8516 0.79688-0.73828 1.8594-1.1133 2.9414-1.0469h0.32031c1.0977-0.875 2.1875-1.75 3.3672-2.4844 1.5586-0.78125 2.8984-1.9375 3.8984-3.3633 0.63281-1.2031 1.8516-1.9805 3.207-2.0469 1.3555-0.066406 2.6445 0.58984 3.3867 1.7266 0.32812-0.046875 0.66016-0.070313 0.99219-0.070313 0.99609-0.21484 2-0.36328 3.0156-0.4375 2.1445-0.019531 3.9375 1.6328 4.0898 3.7734 0.14844 2.1406-1.3945 4.0312-3.5195 4.3125-0.12109 0.003906-0.23828 0.015625-0.35547 0.035156-0.035156 0.035156-0.035156 0.035156-0.070312 0-0.019532 0.015625-0.046876 0.03125-0.074219 0.035156-0.39062 0.070313-0.77734 0.10547-1.168 0.17578l-1.5977 0.21484v-0.003907c-1.0312 3.5195-1.4883 7.1836-1.3477 10.852-0.30469 1.6719-0.69141 3.3281-1.168 4.9609 3.7695-2.1367 7.1641-4.875 10.051-8.1133zm-6.6641 262.34c0.10547-1.9453 0.17578-3.8633 0.10547-5.6875-0.035156-0.64063-0.10547-1.207-0.17578-1.8477-0.44922 0.96094-0.97266 1.8828-1.5625 2.7656-0.74219 1.1367-1.4531 2.3047-2.0898 3.4766zm-14.715-325.9c2.6641-5.0469 4.1328-10.641 4.293-16.344-0.28516-0.57422-0.85547-0.94922-1.4922-0.98828-1.4883-0.875-1.418-0.39453 0.14453 1.3438-5.8906 7.875-10.746 16.188-16.414 24.25-3.8555 4.8359-7.25 10.023-10.141 15.488 4.1523-1.1719 8.9727-2.4805 13.934-3.5 2.7656-6.9141 6.6641-13.367 9.6758-20.25zm-16.129 115.96c2.5898-9.4336 12.336-6.2773 0.32031-12.941-5.6133 17.723-9.1133 36.051-10.422 54.594 1.5938 0.77734 3.0625 1.6289 4.5352 2.5156 1.6328-6.168 2.7656-12.832 3.8984-18.812 1.5039-5.3594 2.1406-10.926 1.8828-16.484-0.65625-2.9141-0.73047-5.9297-0.21484-8.8711zm-7.4805 57.145c2.0195-3.2656 0.875-5.1406-3.543-5.6406-5.8086-3.543-11.945-6.5117-18.328-8.8633-5.1406-2.3008-21.52-10.562-29.281-8.0117v0.003906c-0.42578 1.4648-1.7422 2.4922-3.2656 2.5547-0.0625 0.097656-0.10938 0.20703-0.14062 0.31641 6.4531 2.0156 12.832 5.3164 19.215 7.1562v0.003906c9.3438 2.4727 18.484 5.668 27.332 9.5586 2.3047 1.1328 5.2852 2.0547 7.8008 3.4375 0.074219-0.19922 0.14062-0.33984 0.21094-0.51562zm-7 14.957c1.125-2.2461 2.1016-4.5664 2.9258-6.9414-7.5508-3.4375-15.422-5.8828-23.078-9.0391-6.8086-2.8047-13.934-4.543-20.918-6.8438-3.9727-1.3477-7.6211-3.4023-11.594-4.6094-0.60547 1.0273-1.168 2.125-1.7031 3.1953h0.003907c4.2578-0.019531 8.4688 0.9375 12.301 2.7969 13.438 5.6875 26.023 13.402 39.277 19.496 1.0273 0.48828 1.9609 1.1445 2.7656 1.9453zm-3.4023-33.855-0.003906 0.003906c1.3516-18.645 4.9961-37.051 10.852-54.805-6.5742-2.8477-13.855-3.6289-20.883-2.2383-3.1016 5.0352-6.9648 9.5781-9.6953 14.828-5 9.625-13.082 19.746-17.867 30.094 8.668 0.88672 17.113 3.3008 24.938 7.1289 3.7422 1.6562 8.1719 3.2188 12.641 4.9922zm-35.305 22.613c-3.2656-1.4883-5.9219-2.6562-7.4375-3.293-11.52-4.8906-13.504 4.2539-18.078 12.832l-0.003906 0.003907c-4.5625 9.1523-8.4414 18.629-11.598 28.359-6.457 16.184-11.805 32.793-16.012 49.703-1.75 8.1172-2.9062 17.016-4.0742 25.273-0.60937 7.0039 1.1211 14.012 4.9258 19.926 3.543-11.949 3.8281-25.273 7.7617-36.973 4.0469-12.41 8.793-24.574 14.219-36.445 9.5742-20.312 22.227-38.18 30.273-59.383z"/>
  <path d="m556.66 483.67c3.332-4.0781 9.0781 1.75 5.7812 5.7812-4.6055 5.6367-9.9258 10.777-14.781 16.234-3.4727 3.9375-9.2188-1.8438-5.7383-5.7812 4.8516-5.4531 10.133-10.594 14.738-16.234z"/>
  <path d="m560.74 419.56c3.543 0 0 8.1562 0 8.1562-7.0859-0.023438-7.0859-8.1562 0-8.1562z"/>
  <path d="m473.99 170.08c2.1758-0.60547 4.4258 0.66797 5.0312 2.8438 0.60547 2.1758-0.66797 4.4258-2.8438 5.0312-3.2227 1.0664-6.5742 1.6992-9.9609 1.8828-3.1172-0.054688-6.2305 0.30469-9.2539 1.0625-2.1758 0.60156-4.4258-0.67188-5.0312-2.8438-0.60547-2.1758 0.66797-4.4297 2.8438-5.0312 6.3125-1.8125 12.91-1.0859 19.215-2.9453z"/>
  <path d="m473.18 38.875c2.2617 0.53906 3.8672 2.5508 3.8984 4.875-0.11719 1.75-1.0898 3.332-2.5977 4.2305-1.5078 0.89844-3.3594 1-4.957 0.26953-1.9141-0.61328-3.1211-2.5039-2.8672-4.5-0.21094-1.1914 0.20312-2.4102 1.0977-3.2305 1.4414-1.3828 3.457-1.9922 5.4258-1.6445z"/>
  <path d="m465.24 495.8c4.0039 3.4375-1.8086 9.1875-5.7461 5.7383-4.2188-3.6133-8.7891-9.8906-14.852-10.316-5.2109-0.35547-5.25-8.5039 0-8.1523 8.793 0.60156 14.43 7.3711 20.598 12.73z"/>
  <path d="m455.06 505.54c1.5781 1.5898 1.5781 4.1562 0 5.7461-1.6094 1.5586-4.168 1.5586-5.7773 0-4.543-3.7227-9.1875-7.3398-13.719-11.062v-0.003906c-0.76562-0.76172-1.1992-1.8008-1.1992-2.8867 0-1.082 0.43359-2.1211 1.1992-2.8867 1.6094-1.5234 4.1289-1.5234 5.7383 0 4.5781 3.7188 9.1836 7.3633 13.758 11.094z"/>
  <path d="m435.18 172.56c4.7812 2.125 0.63281 9.1445-4.1133 7-3.6484-1.5117-7.5117-2.4453-11.453-2.7656-2.9141-0.79688-5.9102-1.2617-8.9336-1.3828-5.2109 0.67188-5.1406-7.4805 0-8.1562v0.003906c1.8672 0.007813 3.7188 0.30078 5.4961 0.875 2.625 0.4375 5.1758 0.70703 7.8008 0.92188 3.9141 0.49219 7.707 1.6797 11.203 3.5039z"/>
  <path d="m415.68 507.99c4.2188 3.0625 0.17578 10.102-4.1133 7.0508l0.003906 0.003907c-8.625-6.2305-16.754-13.117-24.32-20.594-3.7578-3.6875 2.0195-9.4688 5.7812-5.7461h-0.003906c7.043 7.0039 14.617 13.453 22.652 19.285z"/>
  <path d="m394.69 39.656c1.6328 0.050781 3.0781 1.0742 3.6719 2.5977 0.59766 1.5234 0.22266 3.2539-0.94141 4.4023-0.070313 0.35547-0.19141 0.70312-0.35547 1.0273-0.60938 1.0352-1.4336 1.9297-2.4102 2.625-1.1797 0.76562-2.6133 1.0273-3.9844 0.72656-1.375-0.30078-2.5664-1.1367-3.3164-2.3242-0.82812-1.4531-0.8125-3.2344 0.035156-4.6758 0.35547-0.5 0.70703-0.99219 1.0977-1.457l0.035157-0.035156c0.027343-0.0625 0.074218-0.11328 0.13672-0.14062-0.035156-0.035156 0-0.035156 0-0.035156 1.4102-1.8828 3.6875-2.9062 6.0312-2.7109z"/>
  <path d="m351.52 120.94c0 0.25 0.035156 0.17578 0 0zm0.70703-1.0273c0.8125 3.2969-1.3125 7.3008-5.2852 6.3086-1.3555-0.29688-2.4727-1.2539-2.9766-2.5508-1.0859-0.68359-1.7539-1.8711-1.7734-3.1523-0.12109-1.2695 0.15234-2.5469 0.78125-3.6562 1.0469-1.668 3.0586-2.4609 4.9609-1.9492 2.1562 0.875 3.7539 2.7383 4.293 5z"/>
  <path d="m313.76 397.95c0.14063 0.074219 0.070313 0.10938-0.28516-0.070313 0.14453 0.035156 0.25 0.070313 0.28516 0.070313z"/>
  <path d="m192.66 345.34c1.1758-1.8633 3.6133-2.4609 5.5156-1.3516 1.9062 1.1094 2.5859 3.5273 1.543 5.4648-2.0234 3.2109-4.8008 5.875-8.0898 7.7617-3.582 2.3984-6.9258 5.1289-9.9961 8.1562-3.7578 3.6484-9.5-2.0898-5.7383-5.7812h-0.003906c2.8047-2.7539 5.8125-5.293 9.0039-7.5859 3.0391-1.6328 5.6914-3.9062 7.7656-6.6641z"/>
  <path d="m187.34 315.53c4.4688-2.8008 8.543 4.2539 4.1133 7.0586-4.4336 2.8047-9.625 3.7539-14.18 6.125l-0.003906-0.003906c-4.082 2.6562-8.4766 4.7969-13.078 6.3828-5.1055 1.2383-7.2695-6.6289-2.1875-7.875 4.4531-1.6719 8.7266-3.7852 12.762-6.3086 4.293-1.543 8.4922-3.3398 12.574-5.3789z"/>
  <use x="70" y="625.625" xlink:href="#u"/>
  <use x="86.054688" y="625.625" xlink:href="#d"/>
  <use x="96.839844" y="625.625" xlink:href="#a"/>
  <use x="111.679687" y="625.625" xlink:href="#g"/>
  <use x="126.4375" y="625.625" xlink:href="#b"/>
  <use x="136.894531" y="625.625" xlink:href="#a"/>
  <use x="151.730469" y="625.625" xlink:href="#i"/>
  <use x="175.007812" y="625.625" xlink:href="#c"/>
  <use x="190.664062" y="625.625" xlink:href="#f"/>
  <use x="212.539062" y="625.625" xlink:href="#h"/>
  <use x="230.847656" y="625.625" xlink:href="#a"/>
  <use x="245.683594" y="625.625" xlink:href="#f"/>
  <use x="267.558594" y="625.625" xlink:href="#t"/>
  <use x="284.402344" y="625.625" xlink:href="#g"/>
  <use x="299.164062" y="625.625" xlink:href="#c"/>
  <use x="314.824219" y="625.625" xlink:href="#c"/>
  <use x="330.480469" y="625.625" xlink:href="#s"/>
  <use x="337.980469" y="625.625" xlink:href="#b"/>
  <use x="70" y="647.5" xlink:href="#r"/>
  <use x="79.515625" y="647.5" xlink:href="#d"/>
  <use x="90.304688" y="647.5" xlink:href="#e"/>
  <use x="105.332031" y="647.5" xlink:href="#q"/>
  <use x="135.742188" y="647.5" xlink:href="#b"/>
  <use x="146.199219" y="647.5" xlink:href="#p"/>
  <use x="161.773438" y="647.5" xlink:href="#a"/>
  <use x="184.222656" y="647.5" xlink:href="#o"/>
  <use x="202.53125" y="647.5" xlink:href="#e"/>
  <use x="217.558594" y="647.5" xlink:href="#n"/>
  <use x="233.132812" y="647.5" xlink:href="#m"/>
  <use x="256.320312" y="647.5" xlink:href="#l"/>
  <use x="272.355469" y="647.5" xlink:href="#d"/>
  <use x="283.140625" y="647.5" xlink:href="#e"/>
  <use x="298.171875" y="647.5" xlink:href="#k"/>
  <use x="305.667969" y="647.5" xlink:href="#a"/>
  <use x="320.503906" y="647.5" xlink:href="#j"/>
  <use x="333.472656" y="647.5" xlink:href="#b"/>
 </g>
</svg>
